<svg id="Isolation_Mode" data-name="Isolation Mode" xmlns="http://www.w3.org/2000/svg" width="32.103mm" height="20.814mm" viewBox="0 0 91 59">
  <title>bus</title>
  <path d="M141.375,49h-3.683a1.2,1.2,0,0,1-1.041-.6l-6.869-12.02A2.736,2.736,0,0,0,127.412,35H115V22H81a1,1,0,0,0,0,2h32V69H85.655a9.487,9.487,0,0,0-18.31,0H60a1,1,0,0,0,0,2h7.025c-.009.167-.025.331-.025.5a9.5,9.5,0,0,0,19,0c0-.169-.017-.333-.025-.5h32.051c-.009.167-.025.331-.025.5a9.5,9.5,0,0,0,19,0c0-.169-.017-.333-.025-.5h4.359A2.67,2.67,0,0,0,144,68.333V51.625A2.628,2.628,0,0,0,141.375,49ZM76.5,79A7.5,7.5,0,1,1,84,71.5,7.508,7.508,0,0,1,76.5,79Zm51,0a7.5,7.5,0,1,1,7.5-7.5A7.508,7.508,0,0,1,127.5,79ZM142,68.333a.667.667,0,0,1-.667.667h-4.678a9.487,9.487,0,0,0-18.31,0H115V37h12.412a.732.732,0,0,1,.635.369l6.869,12.02A3.206,3.206,0,0,0,137.692,51h3.683a.626.626,0,0,1,.625.625Z" transform="translate(-53 -22)" style="fill: #231f20"/>
  <path d="M71,36H97a1,1,0,0,0,0-2H71a1,1,0,0,0,0,2Z" transform="translate(-53 -22)" style="fill: #42bda8"/>
  <path d="M87,46a1,1,0,0,0-1-1H54a1,1,0,0,0,0,2H86A1,1,0,0,0,87,46Z" transform="translate(-53 -22)" style="fill: #42bda8"/>
  <path d="M126.53,43.434a1,1,0,1,0-1.795.882l2.076,4.226A1.012,1.012,0,0,1,125.9,50H118a1,1,0,0,0,0,2h7.9a3.012,3.012,0,0,0,2.7-4.34Z" transform="translate(-53 -22)" style="fill: #231f20"/>
</svg>
