<svg id="Isolation_Mode" data-name="Isolation Mode" xmlns="http://www.w3.org/2000/svg" width="17.992mm" height="26.458mm" viewBox="0 0 51 75">
  <title>cart</title>
  <g>
    <path d="M809-175.132l.015.061c0-.028.012-.053.016-.08Z" transform="translate(-785 222)" style="fill: none"/>
    <path d="M804.994-220A3,3,0,0,0,802-217.006v32.65l6.689-6.606c.231-.21,2.035-1.773,3.925-1.051,1.531.586,2.43,2.371,2.75,5.457A11.425,11.425,0,0,1,810.338-176H825v-44Z" transform="translate(-785 222)" style="fill: none"/>
    <path d="M809.159-174.492c.668,2.7,1.213,5.932.474,7.41-1.072,2.144-5.925,3.378-6.887,3.6a1,1,0,0,1-.229.026,1,1,0,0,1-.973-.771,1,1,0,0,1,.745-1.2c2.332-.548,5.119-1.68,5.555-2.551.316-.632.192-2.954-.8-6.715a1.9,1.9,0,0,1,.907-2.147c1.82-1.015,5.993-3.972,5.42-9.51-.313-3.036-1.136-3.666-1.475-3.8-.664-.254-1.616.436-1.835.635l-13.959,13.786a1,1,0,0,1-1.415-.009,1,1,0,0,1,.009-1.414l5.3-5.235v-11.091c-1.966,1.44-6.273,4.632-8.464,6.531A7.979,7.979,0,0,0,789-181.359V-157h24v-1.878l.5-.289c.049-.027,4.818-2.792,4.93-6.364.1-3.288.043-7.06.013-8.469H810A.985.985,0,0,1,809.159-174.492Z" transform="translate(-785 222)" style="fill: none"/>
    <path d="M831.006-220H827v44h4.006A3,3,0,0,0,834-178.994v-38.012A3,3,0,0,0,831.006-220Z" transform="translate(-785 222)" style="fill: none"/>
    <rect x="40" y="2" width="2" height="44" style="fill: #42bda8"/>
    <path d="M831.006-222H804.994A5,5,0,0,0,800-217.006v21.1a.945.945,0,0,0-.146.066c-.271.2-6.683,4.835-9.629,7.388A9.881,9.881,0,0,0,787-181.345V-157h-2v9a1,1,0,0,0,1,1,1,1,0,0,0,1-1v-7h30v7a1,1,0,0,0,1,1,1,1,0,0,0,1-1v-9h-4v-.741c1.422-.925,5.312-3.808,5.435-7.728.1-3.3.044-7.072.014-8.531h10.557A5,5,0,0,0,836-178.994v-38.012A5,5,0,0,0,831.006-222Zm-12.571,56.469c-.111,3.572-4.881,6.337-4.93,6.364l-.5.289V-157H789v-24.359a7.979,7.979,0,0,1,2.536-5.582c2.191-1.9,6.5-5.09,8.464-6.531v11.091l-5.3,5.235a1,1,0,0,0-.009,1.414,1,1,0,0,0,1.415.009l13.959-13.786c.219-.2,1.171-.889,1.835-.635.339.13,1.161.759,1.475,3.8.573,5.539-3.6,8.5-5.42,9.51a1.9,1.9,0,0,0-.907,2.147c.989,3.761,1.113,6.083.8,6.715-.436.871-3.223,2-5.555,2.551a1,1,0,0,0-.745,1.2,1,1,0,0,0,.973.771,1,1,0,0,0,.229-.026c.962-.226,5.814-1.46,6.887-3.6.739-1.477.194-4.709-.474-7.41A.985.985,0,0,0,810-174h8.448C818.477-172.591,818.538-168.819,818.435-165.531Zm-9.436-9.6.031-.018c0,.027-.014.052-.016.08Zm25-3.862A3,3,0,0,1,831.006-176H810.338a11.425,11.425,0,0,0,5.027-10.555c-.32-3.086-1.219-4.871-2.75-5.457-1.89-.723-3.693.84-3.925,1.051L802-184.356v-32.65A3,3,0,0,1,804.994-220h26.012A3,3,0,0,1,834-217.006Z" transform="translate(-785 222)"/>
  </g>
</svg>
