<svg id="Layer_4" data-name="Layer 4" xmlns="http://www.w3.org/2000/svg" width="43" height="45.17" viewBox="0 0 43 45.17"><defs><style>.cls-1{fill:#21e7c6;}.cls-2{fill:#111b24;}.cls-3{fill:none;stroke:#111b24;stroke-linejoin:round;stroke-width:1.35px;}</style></defs><title>catalog-info-lupe</title><polygon class="cls-1" points="2.26 30.34 0.98 29.9 5.38 17.24 6.66 17.24 11.05 29.9 9.78 30.34 6.02 19.52 2.26 30.34"/><rect class="cls-1" x="3" y="25.57" width="6" height="1.35"/><rect class="cls-1" x="13" y="17.57" width="2" height="1.35"/><rect class="cls-1" x="13" y="21.57" width="4" height="1.35"/><rect class="cls-1" x="13" y="24.57" width="8" height="1.35"/><rect class="cls-1" x="13" y="28.57" width="11" height="1.35"/><rect class="cls-1" y="32.57" width="24" height="1.35"/><rect class="cls-1" y="36.57" width="24" height="1.35"/><rect class="cls-1" x="42" y="17.57" width="1" height="1.35"/><rect class="cls-1" x="40" y="21.57" width="3" height="1.35"/><rect class="cls-1" x="35" y="24.57" width="8" height="1.35"/><rect class="cls-1" x="33" y="28.57" width="10" height="1.35"/><rect class="cls-1" x="33" y="32.57" width="10" height="1.35"/><rect class="cls-1" x="33" y="36.57" width="10" height="1.35"/><rect class="cls-2" x="29.83" y="25.74" width="1.35" height="3"/><rect class="cls-2" x="24.82" y="25.74" width="1.35" height="3"/><path class="cls-3" d="M28.25,25.09" transform="translate(0 0)"/><path class="cls-2" d="M28.26,26.09A13.05,13.05,0,0,1,19,3.82,13,13,0,0,1,28.22,0h0a13,13,0,0,1,13,13h0a13,13,0,0,1-13,13Zm0-24.74h0a11.7,11.7,0,0,0-8.25,20,11.62,11.62,0,0,0,8.28,3.42h0A11.68,11.68,0,0,0,39.95,13h0A11.69,11.69,0,0,0,28.25,1.35Zm0,21.89a10.19,10.19,0,0,1,0-20.38h0a10.2,10.2,0,0,1,7.21,17.4,10.11,10.11,0,0,1-7.19,3h0Zm0-19h0a8.84,8.84,0,0,0,0,17.68h0a8.84,8.84,0,0,0,0-17.68Z" transform="translate(0 0)"/><path class="cls-2" d="M30.5,42.92h-5a.67.67,0,0,1-.67-.67v-14a.67.67,0,0,1,.67-.67h5a.67.67,0,0,1,.67.67v14A.67.67,0,0,1,30.5,42.92Zm-4.33-1.35h3.65V28.92H26.17Z" transform="translate(0 0)"/><path class="cls-2" d="M28,45.17a4.27,4.27,0,0,1-3.11-1.36.68.68,0,0,1-.12-.73l.5-1.12a.68.68,0,0,1,.62-.4h4.24a.67.67,0,0,1,.62.4l.5,1.12a.68.68,0,0,1-.12.74A4.27,4.27,0,0,1,28,45.17Zm-1.8-2a3,3,0,0,0,3.61,0l-.12-.28H26.32Z" transform="translate(0 0)"/><rect class="cls-2" x="24.06" y="9.84" width="12.44" height="1.35" transform="translate(1.43 24.5) rotate(-45)"/><rect class="cls-2" x="24.89" y="6.59" width="8.11" height="1.35" transform="translate(3.34 22.6) rotate(-45)"/></svg>