<svg id="Layer_4" data-name="Layer 4" xmlns="http://www.w3.org/2000/svg" width="44.95" height="45.18" viewBox="0 0 44.95 45.18"><defs><style>.cls-1,.cls-2,.cls-3{fill:none;stroke-width:1.35px;}.cls-1,.cls-3{stroke:#21e7c6;}.cls-2{stroke:#111b24;}.cls-3{stroke-linecap:round;}</style></defs><title>catalog-info-quest</title><polyline class="cls-1" points="33.15 5.67 39.65 5.67 39.65 21.68 35.65 21.68 35.65 26.02 31.32 21.68 16.65 21.68 16.65 18.18"/><path class="cls-2" d="M555.78,538.28v-7.82a6.77,6.77,0,1,1,11.56-4.78c0,.1,0,.2,0,.31l.95,1.64,1.24,2.15h-1.74v2.94a3,3,0,0,1-2.14,2.06h-2.86v3.5" transform="translate(-553.12 -493.11)"/><path class="cls-2" d="M595.78,538.28v-6.94a5.56,5.56,0,1,0-9.49-3.92c0,.09,0,.17,0,.25l-.78,1.34-1,1.77h1.28v2.71a1.39,1.39,0,0,0,1.63,1.29h2.37v3.5" transform="translate(-553.12 -493.11)"/><path class="cls-2" d="M572.19,525.59c.05-2.8,1.73-4.83,4.38-4.83,3.39,0,4.49,2.29,4.49,3.78,0,3.74-3,3.23-3.28,5.6v3.15m0,1v1" transform="translate(-553.12 -493.11)"/><polygon class="cls-3" points="33.65 0.68 2.65 0.68 2.65 18.68 7.65 18.68 7.65 24.33 14.05 18.68 33.65 18.68 33.65 0.68"/><line class="cls-1" x1="9.15" y1="6.68" x2="27.15" y2="6.68"/><line class="cls-1" x1="9.15" y1="9.14" x2="27.15" y2="9.14"/><line class="cls-1" x1="9.15" y1="11.68" x2="27.15" y2="11.68"/></svg>