<svg id="Isolation_Mode" data-name="Isolation Mode" xmlns="http://www.w3.org/2000/svg" width="47.672" height="48.817" viewBox="0 0 47.672 48.817">
  <title>certificat</title>
  <path d="M36.455,10.2a1.021,1.021,0,0,0,1.021,1.021h7.8L36.455,2.395Z" transform="translate(0 0)" style="fill: none"/>
  <path d="M31.1,40.878a7.762,7.762,0,1,0-7.762-7.762A7.762,7.762,0,0,0,31.1,40.878Zm0-12.49a4.735,4.735,0,1,1-4.735,4.735A4.735,4.735,0,0,1,31.1,28.388Z" transform="translate(0 0)" style="fill: none"/>
  <path d="M32.149,42.216l3.212,5,6.288-3L38.6,38.377A9.161,9.161,0,0,1,32.149,42.216Z" transform="translate(0 0)" style="fill: none"/>
  <path d="M23.851,38.7,20.831,44.2l6.176,3.013,3.2-4.972A9.151,9.151,0,0,1,23.851,38.7Z" transform="translate(0 0)" style="fill: none"/>
  <path d="M31.1,36.456a3.333,3.333,0,0,0,0-6.666v-.007a3.336,3.336,0,0,0,0,6.673Z" transform="translate(0 0)" style="fill: none"/>
  <path d="M30.145,18.229H6.31a.7.7,0,1,0,0,1.4H30.145a.7.7,0,0,0,0-1.4Z" transform="translate(0 0)" style="fill: #14112e"/>
  <path d="M30.145,14.022H6.31a.7.7,0,1,0,0,1.4H30.145a.7.7,0,0,0,0-1.4Z" transform="translate(0 0)" style="fill: #14112e"/>
  <path d="M30.145,8.414H6.31a.7.7,0,0,0,0,1.4H30.145a.7.7,0,0,0,0-1.4Z" transform="translate(0 0)" style="fill: #14112e"/>
  <path d="M47.465,11.423,36.249.206A.7.7,0,0,0,35.783,0H2.357A2.393,2.393,0,0,0,0,2.424v30a2.431,2.431,0,0,0,2.374,2.448l19.349.181a.684.684,0,0,0,.4-.14c-.016-.081-.018-.163-.032-.244-.009-.05-.012-.1-.02-.15-.042-.272-.09-.543-.107-.817a.69.69,0,0,0-.233-.055L2.384,33.471A1.037,1.037,0,0,1,1.4,32.425v-30A.99.99,0,0,1,2.357,1.4h32.7v8.794a2.426,2.426,0,0,0,2.423,2.427h8.794V32.59a1.015,1.015,0,0,1-.982,1.018L41,33.791a.7.7,0,0,0,.029,1.4h.029l4.286-.182a2.416,2.416,0,0,0,2.326-2.42v-20.7A.7.7,0,0,0,47.465,11.423Zm-9.99-.2A1.021,1.021,0,0,1,36.455,10.2v-7.8l8.823,8.823Z" transform="translate(0 0)" style="fill: #14112e"/>
  <g>
    <path d="M23.851,38.7,20.831,44.2l6.176,3.013,3.2-4.972A9.151,9.151,0,0,1,23.851,38.7Z" transform="translate(0 0)" style="fill: none"/>
    <path d="M31.1,29.79v-.007a3.336,3.336,0,1,1,0,.007Z" transform="translate(0 0)" style="fill: none"/>
    <path d="M32.149,42.216l3.212,5,6.288-3L38.6,38.377A9.161,9.161,0,0,1,32.149,42.216Z" transform="translate(0 0)" style="fill: none"/>
    <path d="M38.864,33.116A7.762,7.762,0,1,0,31.1,40.878,7.762,7.762,0,0,0,38.864,33.116ZM31.1,37.858a4.735,4.735,0,1,1,4.735-4.735A4.739,4.739,0,0,1,31.1,37.858Z" transform="translate(0 0)" style="fill: none"/>
    <path d="M31.1,28.388a4.735,4.735,0,1,0,4.735,4.735A4.735,4.735,0,0,0,31.1,28.388Zm0,8.068a3.336,3.336,0,0,1,0-6.673v.007a3.333,3.333,0,0,1,0,6.666Z" transform="translate(0 0)" style="fill: #1dcbae"/>
    <path d="M43.245,44.23l-.012-.025-3.808-7.268A9.16,9.16,0,1,0,21.94,33.119c0,.2.024.39.036.585.018.275.054.548.1.82.008.05.011.1.02.15a9.3,9.3,0,0,0,.9,2.688l0,0-3.739,6.806a.706.706,0,0,0,.308.972l7.4,3.609a.7.7,0,0,0,.9-.251l3.331-5.188,3.333,5.188a.7.7,0,0,0,.893.254l7.5-3.584A.7.7,0,0,0,43.245,44.23ZM27.007,47.209,20.831,44.2l3.02-5.495A9.151,9.151,0,0,0,30.2,42.237Zm4.094-6.33a7.762,7.762,0,1,1,7.762-7.762A7.762,7.762,0,0,1,31.1,40.878Zm4.26,6.335-3.212-5a9.161,9.161,0,0,0,6.45-3.839L41.65,44.21Z" transform="translate(0 0)" style="fill: #1dcbae"/>
  </g>
</svg>
