<svg id="Layer_4" data-name="Layer 4" xmlns="http://www.w3.org/2000/svg" width="50.553" height="48.298" viewBox="0 0 50.553 48.298">
  <title>form-person</title>
  <polygon points="26.553 30.843 26.553 23 28.053 23 28.053 27.594 34.032 22.5 49.053 22.5 49.053 1.5 21.053 1.5 21.053 12 19.553 12 19.553 0 50.553 0 50.553 24 34.584 24 26.553 30.843" style="fill: #111b24"/>
  <g>
    <rect x="26.053" y="7.5" width="18" height="1.5" style="fill: #111b24"/>
    <rect x="26.053" y="12" width="18" height="1.5" style="fill: #111b24"/>
    <rect x="26.053" y="16" width="18" height="1.5" style="fill: #111b24"/>
  </g>
  <path d="M32.5,48.3c-.408-2.265-.542-3.62-.685-5.054-.131-1.32-.266-2.684-.632-4.893l-.01-.062v-.063c0-.362-.682-1.042-1.713-1.24a72.97,72.97,0,0,0-7.916-1.081l.117-1.5a74.491,74.491,0,0,1,8.08,1.1c1.616.311,2.884,1.464,2.931,2.646.367,2.226.5,3.6.636,4.937.139,1.4.271,2.729.668,4.936Z" style="fill: #21e7c6"/>
  <path d="M1.476,48.3,0,48.032C.4,45.825.529,44.5.668,43.1c.132-1.333.269-2.711.636-4.938.048-1.182,1.316-2.334,2.928-2.645a75.178,75.178,0,0,1,7.63-1.067l.127,1.495a73.641,73.641,0,0,0-7.476,1.046c-1.028.2-1.711.878-1.71,1.24l-.01.124c-.366,2.209-.5,3.573-.632,4.893C2.019,44.678,1.884,46.033,1.476,48.3Z" style="fill: #21e7c6"/>
  <path d="M24.053,23h-1.5V18.25a.751.751,0,0,0-.75-.75H11.3a.751.751,0,0,0-.75.75V23h-1.5V18.25A2.252,2.252,0,0,1,11.3,16H21.8a2.252,2.252,0,0,1,2.25,2.25Z" style="fill: #21e7c6"/>
  <path d="M16.378,42.672l-4.844-4.3L11.5,38.1c-.07-.506-.136-1.456-.207-2.462-.054-.767-.109-1.556-.162-2.073a3.787,3.787,0,0,1-1.658-2.5c-.068-.578-.138-1.167-.207-1.759a1.53,1.53,0,0,1-1.449-1.377l-.428-4.138a1.532,1.532,0,0,1,1.052-1.613q-.059-.509-.118-1.018l-.056-.485c-.01-.142-.022-.267-.036-.406-.128-1.343-.394-4.139,1.754-6.057,3.3-3.24,10.333-3.24,13.659.024,2.125,1.9,1.856,4.7,1.727,6.04-.013.137-.025.26-.032.364-.058.525-.116,1.033-.175,1.538a1.528,1.528,0,0,1,1.05,1.615l-.428,4.139a1.532,1.532,0,0,1-1.451,1.373q-.1.892-.21,1.781a3.748,3.748,0,0,1-1.652,2.479c-.053.513-.108,1.292-.162,2.051-.072,1.016-.14,1.976-.212,2.486l-.044.308ZM12.95,37.627l3.507,3.109,4.188-3.145c.054-.515.11-1.308.165-2.079.072-1.012.14-1.968.211-2.475l.048-.34.289-.186a2.605,2.605,0,0,0,1.27-1.572c.11-.924.214-1.819.317-2.716l.182-1.593,1.106,1.16h0l.056-.01.429-4.142-1.272.693.138-1.594c.087-.745.174-1.485.257-2.23.005-.085.018-.221.033-.373.114-1.184.325-3.386-1.259-4.8-2.732-2.68-8.9-2.681-11.609-.024-1.607,1.437-1.4,3.638-1.285,4.82.015.155.028.293.036.411l.053.448c.073.627.146,1.252.217,1.882l.163,1.453-1.276-.716.392,4.172,1.106-1.168.235,1.612q.155,1.347.314,2.689a2.616,2.616,0,0,0,1.277,1.6l.29.186.048.341c.072.511.139,1.476.211,2.5C12.84,36.315,12.9,37.117,12.95,37.627Z" style="fill: #21e7c6"/>
  <polygon points="18.553 35.5 14.835 35.5 11.381 33.774 12.051 32.432 15.189 34 18.553 34 18.553 35.5" style="fill: #21e7c6"/>
</svg>
