<svg id="Layer_4" data-name="Layer 4" xmlns="http://www.w3.org/2000/svg" width="45.24" height="43.68" viewBox="0 0 45.24 43.68"><defs><style>.cls-1{fill:none;}.cls-2{fill:#111b24;}.cls-3{fill:#1dcbae;}</style></defs><title>garant-check</title><path class="cls-1" d="M1,40H19.8V31.2c-.23-.14-.47-.28-.69-.43L12.47,35a.48.48,0,0,1-.5,0l.26,2.85H8.6L9,33.34a2.22,2.22,0,1,1,2.8,0l.07.75,3.26-6.16H1Z" transform="translate(0 0)"/><path class="cls-1" d="M11.17,30.68a1.24,1.24,0,0,0-1.06-.23,1.22,1.22,0,0,0-.32,2.22l.27.16-.37,4h1.44l-.37-4,.27-.16a1.19,1.19,0,0,0,.6-1A1.21,1.21,0,0,0,11.17,30.68Z" transform="translate(0 0)"/><path class="cls-1" d="M32.83,24a1.41,1.41,0,1,0-1.36-1.74.54.54,0,0,1,.05.22.47.47,0,0,1-.08.26A1.39,1.39,0,0,0,32.83,24Z" transform="translate(0 0)"/><rect class="cls-1" x="1" y="40.98" width="18.8" height="1.7"/><path class="cls-1" d="M9.54,18A3.14,3.14,0,0,0,6.4,21.16v3.07h7a16.89,16.89,0,0,1-1.7-6.16,2.85,2.85,0,0,0-.42,0Z" transform="translate(0 0)"/><path class="cls-1" d="M1,26.93H15.05a15.76,15.76,0,0,1-1.14-1.7H1Z" transform="translate(0 0)"/><path class="cls-1" d="M22,22.58a1.41,1.41,0,1,0,1.41-1.41A1.41,1.41,0,0,0,22,22.58Z" transform="translate(0 0)"/><path class="cls-1" d="M22.94,13.38l1.66,5H35.06s.12,0,.12-.09a.59.59,0,0,1,0-.14l1.58-5.52H22.7Zm11,3.73H25.4v-1H34Zm.9-3.25v1H25v-1Z" transform="translate(0 0)"/><path class="cls-1" d="M9.71,15.78a5.57,5.57,0,0,0-5.56,5.56v2.89H5.4V21.16A4.14,4.14,0,0,1,9.54,17h1.72c.13,0,.25,0,.38,0s0-.17,0-.26c0-.34,0-.68,0-1h-2Z" transform="translate(0 0)"/><path class="cls-2" d="M9.54,17A4.14,4.14,0,0,0,5.4,21.16v3.07h1V21.16A3.14,3.14,0,0,1,9.54,18h1.72a2.85,2.85,0,0,1,.42,0c0-.33,0-.67,0-1-.13,0-.25,0-.38,0Z" transform="translate(0 0)"/><path class="cls-2" d="M4.15,21.34a5.57,5.57,0,0,1,5.56-5.56h2c0-.33,0-.66.08-1h-2a6.56,6.56,0,0,0-6.56,6.56v2.89h1Z" transform="translate(0 0)"/><path class="cls-2" d="M12.63,31.63A2.22,2.22,0,1,0,9,33.34L8.6,37.83h3.63L12,35a.33.33,0,0,1-.1-.06.5.5,0,0,1-.11-.6l.12-.23-.07-.75A2.2,2.2,0,0,0,12.63,31.63Zm-1.6,1-.27.16.37,4H9.69l.37-4-.27-.16a1.22,1.22,0,0,1,.32-2.22,1.24,1.24,0,0,1,1.06.23,1.21,1.21,0,0,1,.46.95A1.19,1.19,0,0,1,11,32.67Z" transform="translate(0 0)"/><rect class="cls-2" x="1" y="39.98" width="18.8" height="1"/><path class="cls-2" d="M1,27.93H15.14l.27-.52c-.13-.16-.24-.32-.36-.48H1Z" transform="translate(0 0)"/><path class="cls-2" d="M19.8,40v2.7H1V25.23H13.91c-.19-.33-.36-.67-.53-1H0V43.68H20.8V31.76c-.34-.18-.67-.36-1-.56Z" transform="translate(0 0)"/><path class="cls-3" d="M28.43,0A16.82,16.82,0,0,0,11.76,14.79c0,.33-.06.66-.08,1s0,.68,0,1c0,.09,0,.18,0,.26,0,.34,0,.68,0,1a16.89,16.89,0,0,0,1.7,6.16c.17.33.34.67.53,1a15.76,15.76,0,0,0,1.14,1.7c.12.16.23.32.36.48l-.27.52-3.26,6.16-.12.23a.5.5,0,0,0,.11.6A.33.33,0,0,0,12,35a.48.48,0,0,0,.5,0l6.64-4.21c.22.15.46.29.69.43s.66.38,1,.56A16.8,16.8,0,1,0,28.43,0Zm0,32.61a15.65,15.65,0,0,1-7.63-2c-.34-.18-.67-.39-1-.6l-.4-.26a.5.5,0,0,0-.55,0l-5.32,3.38,2.74-5.2.18-.35a.48.48,0,0,0-.06-.55l-.08-.1a15.52,15.52,0,0,1-1.22-1.7c-.21-.33-.4-.66-.59-1,0-.07-.07-.13-.1-.2a15.82,15.82,0,0,1-1.68-5.63c0-.37-.06-.74-.07-1.12,0-.16,0-.32,0-.48s0-.6,0-.91,0-.67.08-1A15.8,15.8,0,1,1,28.43,32.61Z" transform="translate(0 0)"/><path class="cls-3" d="M23.68,21.12a.4.4,0,0,1-.15,0,.5.5,0,0,1-.33-.62l.09-.29A2.4,2.4,0,1,0,25.74,23h-.12a.51.51,0,0,1-.5-.5.5.5,0,0,1,.5-.5h.07a2.42,2.42,0,0,0-1.41-1.61l-.12.41A.51.51,0,0,1,23.68,21.12Zm1.1,1.46a1.41,1.41,0,1,1-1.4-1.41A1.4,1.4,0,0,1,24.78,22.58Z" transform="translate(0 0)"/><path class="cls-3" d="M31.47,22.24a1.41,1.41,0,1,1,0,.48A.5.5,0,0,1,31,23h-.56a2.41,2.41,0,1,0,.05-1H31A.49.49,0,0,1,31.47,22.24Z" transform="translate(0 0)"/><path class="cls-3" d="M25.12,22.46a.51.51,0,0,0,.5.5H31a.5.5,0,0,0,.42-.24.47.47,0,0,0,.08-.26.54.54,0,0,0-.05-.22A.49.49,0,0,0,31,22h-5.4A.5.5,0,0,0,25.12,22.46Z" transform="translate(0 0)"/><path class="cls-3" d="M21.61,11.81a.51.51,0,0,1,.4-.2h.34l-.64-1.9a.5.5,0,0,0-.33-.32l-2.56-.73a.5.5,0,1,0-.28,1l2.31.66L22,13.67l-.44-1.41A.51.51,0,0,1,21.61,11.81Z" transform="translate(0 0)"/><path class="cls-3" d="M23.65,19l-.36,1.17-.09.29a.5.5,0,0,0,.33.62.4.4,0,0,0,.15,0,.51.51,0,0,0,.48-.36l.12-.41.31-1h-.46A.5.5,0,0,1,23.65,19Z" transform="translate(0 0)"/><polygon class="cls-3" points="24.5 18.36 24.6 18.36 22.94 13.38 24.5 18.36"/><path class="cls-3" d="M37.44,11.61H22a.49.49,0,0,0-.47.65L22,13.67,23.65,19h0a.5.5,0,0,0,.48.35H35.06a1.1,1.1,0,0,0,1.12-1l1.74-6.11a.45.45,0,0,0-.08-.43A.48.48,0,0,0,37.44,11.61ZM35.2,18.13a.59.59,0,0,0,0,.14c0,.08-.1.09-.12.09H24.49l-1.55-5-.24-.77H36.78Z" transform="translate(0 0)"/><rect class="cls-3" x="24.95" y="13.86" width="9.9" height="1"/><rect class="cls-3" x="25.4" y="16.11" width="8.55" height="1"/></svg>