<svg id="Layer_4" data-name="Layer 4" xmlns="http://www.w3.org/2000/svg" width="45.63" height="45.16" viewBox="0 0 45.63 45.16"><defs><style>.cls-1{fill:#111b24;}.cls-2{fill:none;}.cls-3{fill:#1dcbae;}</style></defs><title>garant-perfomance</title><path class="cls-1" d="M14.85,45.16l-4.56-.71-.11-2q-.54-.23-1-.48L7.5,43.3,3.9,40.4l1-2a8.78,8.78,0,0,1-.54-.77L2.06,38,.4,33.7l2-1.32c0-.26-.06-.51-.08-.77L0,30.71l.71-4.56L3.22,26c.08-.22.18-.43.27-.64l-1.63-2,2.9-3.6L7,20.89l.56-.44-.4-2.53,3.94-1.52.36.94L8.27,18.56l.37,2.35-.26.18c-.35.24-.68.5-1,.77l-.25.22L5,21,3.15,23.36l1.52,1.88-.14.28A11.5,11.5,0,0,0,4,26.66L3.92,27l-2.34.13-.47,3,2.2.84v.33a11.47,11.47,0,0,0,.14,1.3l0,.32L1.62,34.1l1.09,2.8,2.16-.35.17.29A12.19,12.19,0,0,0,5.89,38l.2.25-.93,1.84L7.5,42,9,40.78l.29.16a12.44,12.44,0,0,0,1.52.71l.3.11.1,1.83,3,.46.63-1.63h.34A12.72,12.72,0,0,0,17,42.24l.33-.06.89,1.36L21,42.46l-.25-1.57.28-.18a10.26,10.26,0,0,0,1.6-1.17l.26-.22,1.34.68,1.89-2.33-1-1.2.15-.29a12,12,0,0,0,.79-1.85l.1-.33,1.9-.1.06,1L27,35a14.13,14.13,0,0,1-.59,1.39l1.06,1.31-2.9,3.6-1.47-.74a14.5,14.5,0,0,1-1.19.87l.27,1.71-4.31,1.66-1-1.49a11.92,11.92,0,0,1-1.34.13Zm.33-7.67a6.31,6.31,0,0,1-1.06-.08,6.9,6.9,0,0,1,0-13.63l.16,1A5.9,5.9,0,1,0,20.57,33l.92.4A6.92,6.92,0,0,1,15.18,37.49Z"/><path class="cls-2" d="M33.22,24a1.41,1.41,0,1,0-1.36-1.74.54.54,0,0,1,.05.22.47.47,0,0,1-.08.26A1.39,1.39,0,0,0,33.22,24Z"/><path class="cls-2" d="M22.36,22.58a1.41,1.41,0,1,0,1.41-1.41A1.41,1.41,0,0,0,22.36,22.58Z"/><path class="cls-2" d="M23.33,13.38l1.66,5H35.45s.12,0,.12-.09a.59.59,0,0,1,0-.14l1.58-5.52H23.09Zm11,3.73H25.79v-1h8.55Zm.9-3.25v1h-9.9v-1Z"/><path class="cls-3" d="M28.82,0A16.82,16.82,0,0,0,12.15,14.79c0,.33-.06.66-.08,1s-.05.68-.05,1c0,.09,0,.18,0,.26,0,.34,0,.68,0,1a16.89,16.89,0,0,0,1.7,6.16c.17.33.34.67.53,1a17.38,17.38,0,0,0,1.14,1.7c.12.16.23.32.36.48l-.27.52-3.25,6.16-.12.23a.49.49,0,0,0,.1.6.33.33,0,0,0,.1.06.48.48,0,0,0,.24.07.54.54,0,0,0,.27-.07l6.63-4.21.69.43c.33.2.66.38,1,.56A16.8,16.8,0,1,0,28.82,0Zm0,32.61a15.65,15.65,0,0,1-7.63-2c-.34-.18-.67-.39-1-.6l-.39-.26a.52.52,0,0,0-.56,0l-5.32,3.38,2.74-5.2.18-.35a.48.48,0,0,0-.06-.55l-.08-.1a15.52,15.52,0,0,1-1.22-1.7c-.21-.33-.4-.66-.59-1a1.86,1.86,0,0,0-.1-.2,15.82,15.82,0,0,1-1.68-5.63c0-.37-.06-.74-.07-1.12,0-.16,0-.32,0-.48s0-.6,0-.91,0-.67.09-1A15.8,15.8,0,1,1,28.82,32.61Z"/><path class="cls-3" d="M24.07,21.12a.4.4,0,0,1-.15,0,.5.5,0,0,1-.33-.62l.09-.29A2.4,2.4,0,1,0,26.13,23H26a.51.51,0,0,1-.5-.5A.5.5,0,0,1,26,22h.07a2.4,2.4,0,0,0-1.41-1.61l-.12.41A.51.51,0,0,1,24.07,21.12Zm1.1,1.46a1.41,1.41,0,1,1-1.4-1.41A1.4,1.4,0,0,1,25.17,22.58Z"/><path class="cls-3" d="M31.86,22.24a1.41,1.41,0,1,1,0,.48.5.5,0,0,1-.42.24h-.56a2.41,2.41,0,1,0,0-1h.51A.49.49,0,0,1,31.86,22.24Z"/><path class="cls-3" d="M25.51,22.46a.51.51,0,0,0,.5.5h5.4a.5.5,0,0,0,.42-.24.47.47,0,0,0,.08-.26.54.54,0,0,0-.05-.22.49.49,0,0,0-.45-.28H26A.5.5,0,0,0,25.51,22.46Z"/><path class="cls-3" d="M22,11.81a.51.51,0,0,1,.41-.2h.33l-.63-1.9a.54.54,0,0,0-.34-.32l-2.56-.73a.5.5,0,1,0-.28,1l2.31.66,1.13,3.39-.44-1.41A.51.51,0,0,1,22,11.81Z"/><path class="cls-3" d="M24,19l-.36,1.17-.09.29a.5.5,0,0,0,.33.62.4.4,0,0,0,.15,0,.51.51,0,0,0,.48-.36l.12-.41.31-1h-.46A.5.5,0,0,1,24,19Z"/><polygon class="cls-3" points="24.89 18.36 24.99 18.36 23.33 13.38 24.89 18.36"/><path class="cls-3" d="M37.83,11.61H22.41a.49.49,0,0,0-.48.65l.44,1.41L24,19h0a.5.5,0,0,0,.48.35H35.45a1.1,1.1,0,0,0,1.12-1l1.74-6.11a.45.45,0,0,0-.08-.43A.48.48,0,0,0,37.83,11.61Zm-2.24,6.52a.59.59,0,0,0,0,.14c0,.08-.1.09-.12.09H24.89l-1.56-5-.24-.77H37.17Z"/><rect class="cls-3" x="25.34" y="13.86" width="9.9" height="1"/><rect class="cls-3" x="25.79" y="16.11" width="8.55" height="1"/></svg>