<svg id="Layer_4" data-name="Layer 4" xmlns="http://www.w3.org/2000/svg" width="45.64" height="45.884" viewBox="0 0 45.64 45.884">
  <defs>
    <style>
      .cls-1,.cls-2{fill:none;stroke-linejoin:round;}.cls-1{stroke:#191919;stroke-linecap:round;}.cls-2{stroke:#1dcbae;}
    </style>
  </defs>
  <path class="cls-1" d="M19.22 33.688c-.558.056-1.125.086-1.7.086a16.623 16.623 0 1 1 16.39-13.762"/>
  <path class="cls-1" d="M17.52 33.774c-5.315 0-9.625-7.45-9.625-16.637S12.205.5 17.52.5c4.826 0 8.825 6.15 9.514 14.168"/>
  <path class="cls-1" d="M34.215 19.86A16.65 16.65 0 0 0 17.8.5v16.685"/>
  <path class="cls-1" d="M34.344 19.742a16.758 16.758 0 0 0-.912-8.557H1.608a16.814 16.814 0 0 0 0 12H13.8"/>
  <path class="cls-2" d="M32.5 34.822l-2.01-2.01M32.567 30.736l2.01 2.01M31.8 17.473a10.3 10.3 0 1 0 3.025 7.288 10.25 10.25 0 0 0-3.025-7.287z"/>
  <path class="cls-2" d="M29.852 30.07a7.51 7.51 0 1 1 2.2-5.308 7.482 7.482 0 0 1-2.2 5.308zM32.154 35.378L35.13 32.4l9.296 9.292-2.977 2.978z"/>
  <path class="cls-2" d="M45.14 42.408a2.977 2.977 0 0 1-2.978 2.976l-.714-.713 2.978-2.978zM29.296 19.576l-7.33 7.33M26.906 18.14l-4.78 4.783"/>
</svg>