<svg id="_1" data-name="1" xmlns="http://www.w3.org/2000/svg" width="32.342" height="32.435" viewBox="0 0 32.342 32.435">
  <title>logo-header</title>
  <g>
    <path d="M21.995,13.076a34.036,34.036,0,0,1-8.241.07c-6.237-25.635-27.019-3-.94.728a30.675,30.675,0,0,1,1.379,6.856c-19.489,6.991,1.482,22.1.87.593a8.883,8.883,0,0,1,5.562.042c-.153,21.25,14.708,5.263.7-.658a28.093,28.093,0,0,1,.895-6.78C42.275,11.366,27.226-2.791,21.995,13.076Zm.5-.078c4.091-12.65,16.251-2.733,0,0Zm-10.03,0c-18.6-2.537-8.929-21.176,0,0Zm8.926,8.646c10.082,4.074,2.032,17.65,0,0Zm-7.117-.023c-1.174,18.829-14.792,5.184,0,0Zm6.369-1.166a9.761,9.761,0,0,0-5.618.007,29.786,29.786,0,0,0-1-6.438,36.034,36.034,0,0,0,7.68-.038A28.967,28.967,0,0,0,20.644,20.454Z" transform="translate(0 0)" style="fill: #fff;fill-rule: evenodd"/>
    <path d="M18.148,8.957c1.946,0,3.415-2.005,3.279-4.479S19.6,0,17.655,0s-3.415,2.005-3.278,4.479S16.2,8.957,18.148,8.957Zm-.282-7.4c1.48,0,2.764,1.524,2.867,3.4s-1.012,3.4-2.493,3.4-2.763-1.524-2.867-3.4S16.386,1.554,17.867,1.554Z" transform="translate(0 0)" style="fill: #fff;fill-rule: evenodd"/>
  </g>
</svg>
