<svg id="_1" data-name="1" xmlns="http://www.w3.org/2000/svg" width="64.062" height="9.427" viewBox="0 0 64.062 9.427">
  <title>logo-header-name</title>
  <path d="M3.881,1.235a2.017,2.017,0,0,0-.847.177,1.671,1.671,0,0,0-.671.574,3.043,3.043,0,0,0-.441,1.041,6.623,6.623,0,0,0-.159,1.562,4.165,4.165,0,0,0,.617,2.6,2.056,2.056,0,0,0,1.676.75,2.211,2.211,0,0,0,.75-.123,4.627,4.627,0,0,0,.608-.265A3.443,3.443,0,0,0,6,7.145h.177L6.792,8.2A3.511,3.511,0,0,1,6,8.7a4.86,4.86,0,0,1-.917.335,4.665,4.665,0,0,1-1.2.141A3.662,3.662,0,0,1,1.05,8.036,4.939,4.939,0,0,1,0,4.587a6.875,6.875,0,0,1,.264-2.02,3.943,3.943,0,0,1,.758-1.429A3.106,3.106,0,0,1,2.2.282,3.9,3.9,0,0,1,3.7,0,4.4,4.4,0,0,1,4.9.15a5.246,5.246,0,0,1,.918.344A3.95,3.95,0,0,1,6.616.97L6,2.029H5.822a4.17,4.17,0,0,0-.582-.388,5.4,5.4,0,0,0-.609-.273,2.061,2.061,0,0,0-.75-.133Zm50.034,2.21a2.318,2.318,0,0,0-.507-1.632,1.816,1.816,0,0,0-1.4-.544,2.2,2.2,0,0,0-.779.136,5.1,5.1,0,0,0-.634.281,3.365,3.365,0,0,0-.58.4h-.181L49.2,1a4.307,4.307,0,0,1,.815-.489A5.839,5.839,0,0,1,50.96.155,4.531,4.531,0,0,1,52.193,0a3.931,3.931,0,0,1,1.432.254A3.193,3.193,0,0,1,54.74.97a3.335,3.335,0,0,1,.725,1.1,3.566,3.566,0,0,1,.263,1.378v5.8h-.643c-.45.006-.645-.113-.807-1.088h-.091a2.786,2.786,0,0,1-.634.634,3.439,3.439,0,0,1-.816.444,3.261,3.261,0,0,1-1.178.191,3.057,3.057,0,0,1-2.212-.752,2.727,2.727,0,0,1-.78-2.057A2.765,2.765,0,0,1,48.785,5.5a2.152,2.152,0,0,1,.68-.852A3.444,3.444,0,0,1,50.67,4.1a7.015,7.015,0,0,1,1.795-.2h1.45V3.445Zm0,1.722h-1.45a2.46,2.46,0,0,0-1.587.417,1.3,1.3,0,0,0-.5,1.033,1.392,1.392,0,0,0,.408,1.069,1.738,1.738,0,0,0,1.223.381,1.687,1.687,0,0,0,.762-.172,3.617,3.617,0,0,0,.6-.372,2.943,2.943,0,0,0,.544-.544V5.167ZM13.624,3.445a2.316,2.316,0,0,0-.508-1.632,1.815,1.815,0,0,0-1.4-.544,2.2,2.2,0,0,0-.779.136,5.059,5.059,0,0,0-.634.281,3.368,3.368,0,0,0-.58.4H9.545L8.911,1A4.316,4.316,0,0,1,9.726.508a5.854,5.854,0,0,1,.943-.354A4.528,4.528,0,0,1,11.9,0a3.931,3.931,0,0,1,1.432.254A3.192,3.192,0,0,1,14.449.97a3.34,3.34,0,0,1,.725,1.1,3.566,3.566,0,0,1,.263,1.378v5.8h-.643c-.45.006-.645-.113-.807-1.088H13.9a2.781,2.781,0,0,1-.634.634,3.437,3.437,0,0,1-.816.444,3.262,3.262,0,0,1-1.178.191,3.056,3.056,0,0,1-2.212-.752,2.726,2.726,0,0,1-.78-2.057A2.77,2.77,0,0,1,8.494,5.5a2.152,2.152,0,0,1,.68-.852A3.445,3.445,0,0,1,10.379,4.1a7.013,7.013,0,0,1,1.795-.2h1.45V3.445Zm0,1.722h-1.45a2.457,2.457,0,0,0-1.586.417,1.294,1.294,0,0,0-.5,1.033A1.393,1.393,0,0,0,10.5,7.686a1.738,1.738,0,0,0,1.224.381,1.687,1.687,0,0,0,.761-.172,3.621,3.621,0,0,0,.6-.372,2.952,2.952,0,0,0,.544-.544V5.167Zm4.3,2.772a.685.685,0,0,0,.573-.353c.4-.588.55-4.914.628-6.684.022-.494.567-.726.937-.726h5.272V9H23.574l0-7.585h-2.4a.337.337,0,0,0-.348.348c-.07,1.722-.043,5.659-.947,6.707a2.008,2.008,0,0,1-1.6.705,2.669,2.669,0,0,1-.688-.088A2.113,2.113,0,0,1,17.312,9q.039-.5.077-1l.011-.147h.175a.226.226,0,0,0,.106.053,1.034,1.034,0,0,0,.247.035ZM32.66,3.352a2.25,2.25,0,0,0-.494-1.588,1.766,1.766,0,0,0-1.358-.53,2.132,2.132,0,0,0-.759.133,4.925,4.925,0,0,0-.618.273,3.272,3.272,0,0,0-.564.388H28.69L28.073.97a4.188,4.188,0,0,1,.794-.476A5.74,5.74,0,0,1,29.784.15a4.42,4.42,0,0,1,1.2-.15,3.821,3.821,0,0,1,1.393.247,3.1,3.1,0,0,1,1.085.7,3.258,3.258,0,0,1,.706,1.067,3.479,3.479,0,0,1,.256,1.341V9H33.8c-.438.006-.627-.111-.785-1.059h-.088a2.712,2.712,0,0,1-.618.617,3.347,3.347,0,0,1-.794.432,3.172,3.172,0,0,1-1.147.185,2.976,2.976,0,0,1-2.152-.732,2.655,2.655,0,0,1-.758-2,2.685,2.685,0,0,1,.212-1.085,2.085,2.085,0,0,1,.661-.829A3.356,3.356,0,0,1,29.5,3.987a6.848,6.848,0,0,1,1.747-.194H32.66V3.352Zm0,1.676H31.248a2.39,2.39,0,0,0-1.543.406,1.26,1.26,0,0,0-.485,1.005,1.355,1.355,0,0,0,.4,1.041,1.691,1.691,0,0,0,1.191.371,1.64,1.64,0,0,0,.741-.167,3.523,3.523,0,0,0,.582-.362,2.886,2.886,0,0,0,.529-.529V5.028ZM40.731,7.5,39.055,4.323a6.884,6.884,0,0,1-.37-.829c-.052-.142-.112-.276-.158-.406h-.071c.012.141.024.283.035.424s.021.265.027.406.009.278.009.406V9H36.761V.177h1.3a.977.977,0,0,1,.832.517l2.37,4.423a4.553,4.553,0,0,1,.229.459,2.573,2.573,0,0,1,.088.247h.07c.024-.082.056-.165.088-.247a4.693,4.693,0,0,1,.229-.459L44.26.835a.993.993,0,0,1,.907-.658h1.3V9H44.7V4.323c0-.13,0-.265.009-.406s.016-.277.026-.406.023-.282.035-.424H44.7c-.059.129-.105.268-.159.406s-.118.268-.176.415a4.379,4.379,0,0,1-.194.414L42.5,7.5a1.069,1.069,0,0,1-1.764,0ZM64.062,1.412H61.416V9H59.652V1.412H57.006V.177h7.057Z" style="fill: #ff7308;fill-rule: evenodd"/>
</svg>
