<svg id="_1" data-name="1" xmlns="http://www.w3.org/2000/svg" width="40" height="46.63" viewBox="0 0 40 46.63">
  <defs>
    <style>
      .cls-1{fill:#ff7e22;}.cls-2{fill:#fff;fill-rule:evenodd;}
    </style>
  </defs>
  <path class="cls-1" d="M34.142 5.862a20 20 0 0 1 0 28.284L22.828 45.46a4 4 0 0 1-5.656 0L5.858 34.146a20 20 0 0 1 0-28.284 20 20 0 0 1 28.284 0z"/>
  <path class="cls-2" d="M23.9 24.17c7.89 3.18 1.59 13.81 0 0zm.86-6.77c3.2-9.9 12.72-2.14 0 0zm-6.43 6.75c-.92 14.73-11.57 4.05 0 0zm-.19-5.95a27.44 27.44 0 0 0 6 0 22.31 22.31 0 0 0-.83 5.07 7.66 7.66 0 0 0-4.4 0 23.15 23.15 0 0 0-.78-5zm-1.22-.8c-14.55-2-7-16.57 0 0zm6.93 6a21.9 21.9 0 0 1 .7-5.3c15.69-2 3.92-13.08-.18-.67a26.18 26.18 0 0 1-6.45.06c-4.88-20.06-21.13-2.35-.73.57a23.91 23.91 0 0 1 1.08 5.36c-15.27 5.5 1.16 17.32.73.5a7 7 0 0 1 4.35 0c-.17 16.66 11.46 4.15.5-.49z"/>
  <path class="cls-2" d="M21 7.23c1.52 0 2.84 1.57 2.95 3.51s-1 3.5-2.57 3.5-2.84-1.57-2.95-3.5 1-3.51 2.57-3.51zm.16 1.22c-1.16 0-2 1.19-1.95 2.66a2.61 2.61 0 0 0 2.25 2.67c1.15 0 2-1.2 1.95-2.67a2.6 2.6 0 0 0-2.27-2.66z"/>
</svg>