<svg id="Layer_4" data-name="Layer 4" xmlns="http://www.w3.org/2000/svg" width="75" height="38.38" viewBox="0 0 75 38.38"><defs><style>.cls-1{fill:#21e7c6;}.cls-2{fill:#111b24;}</style></defs><title>partners-hands</title><path class="cls-1" d="M41.3,38.38A3.21,3.21,0,0,1,39.86,38l-3.3-1.65a2.32,2.32,0,0,1-.33-.1A.72.72,0,0,1,36.08,35a1.75,1.75,0,0,0,.59-.68l.88-1.75A1.78,1.78,0,0,0,34.37,31l-.87,1.75a1.81,1.81,0,0,0-.18.91.72.72,0,0,1-.32.65.71.71,0,0,1-.72,0l-1.75-.88a.72.72,0,0,1-.07-1.24,1.74,1.74,0,0,0,.62-.7l2.56-5.11a1.77,1.77,0,1,0-3.17-1.59L27.91,30a1.76,1.76,0,0,0-.18.9.7.7,0,0,1-.32.65.72.72,0,0,1-.72,0l-1.75-.87a.72.72,0,0,1-.39-.61.71.71,0,0,1,.32-.64,1.72,1.72,0,0,0,.62-.69l2.08-4.15a1.77,1.77,0,0,0-.8-2.37,1.72,1.72,0,0,0-1.35-.1,1.77,1.77,0,0,0-1,.89l-2.07,4.14a1.77,1.77,0,0,0-.18.91.72.72,0,0,1-.32.64.69.69,0,0,1-.72.05l-2-1a.75.75,0,0,1-.4-.61.73.73,0,0,1,.33-.64,1.78,1.78,0,0,0,.62-.69l.88-1.76a1.77,1.77,0,0,0-2.15-2.47,1.73,1.73,0,0,0-1,.89l-.88,1.75a1.77,1.77,0,0,0-.19.88.72.72,0,0,1-.36.66.75.75,0,0,1-.75,0,5.7,5.7,0,0,1-2.38-4.18l1.41-.27a5.66,5.66,0,0,0,.9,2.46,1.42,1.42,0,0,1,.08-.18l.88-1.75a3.21,3.21,0,0,1,4.31-1.43,3.21,3.21,0,0,1,1.43,4.31L21,26.48a2.74,2.74,0,0,1-.29.46l.15.08a3.17,3.17,0,0,1,.2-.51l2.08-4.14a3.21,3.21,0,0,1,4.31-1.43,3.22,3.22,0,0,1,1.75,3.29v0a3.21,3.21,0,0,1,5.75,2.87l-1.21,2.42a3.22,3.22,0,0,1,5.12,3.74L38,35a4,4,0,0,1-.23.39l2.78,1.37a1.72,1.72,0,0,0,1.35.1,1.77,1.77,0,0,0,.84-2.77.72.72,0,0,1,0-.87,5,5,0,0,0,.35-.54.72.72,0,0,1,1-.28l2.11,1.06a1.77,1.77,0,0,0,1.59-3.17l-2.1-1.06a.7.7,0,0,1-.36-.41.7.7,0,0,1,0-.55l.22-.43a.71.71,0,0,1,1-.32L51.39,30a1.77,1.77,0,0,0,2.47-2.14,1.74,1.74,0,0,0-.89-1L48,24.32a.71.71,0,0,1-.34-.92c0-.13.1-.27.14-.4a.69.69,0,0,1,.41-.44.7.7,0,0,1,.6,0L51,23.67a1.88,1.88,0,0,0,.42.14.65.65,0,0,1,.33.17,2.19,2.19,0,0,0,.37.25l4,2a1.77,1.77,0,0,0,2.48-2.14,1.78,1.78,0,0,0-.89-1l-3.95-2a1.67,1.67,0,0,0-.43-.14.76.76,0,0,1-.32-.17,2.19,2.19,0,0,0-.37-.25L45.21,16.8a11.36,11.36,0,0,1-1.92-.26,10.77,10.77,0,0,1-6-3.57l-4,.42-.08.4a5.05,5.05,0,0,1-6,3.95l-1.42-.29-.14,0a.79.79,0,0,1-.59-.86l1.74-8.49a.71.71,0,0,1,.36-.48.62.62,0,0,1,.26-.12l6.15-1.28h.24l2.67-.53a.68.68,0,0,1,.42,0,.78.78,0,0,1,.21,0L38.87,6l-.4-1.29-5.63-.57a.65.65,0,0,1-.2,0l-3-.29-10.2,3.4L19,5.91,29.13,2.54a.69.69,0,0,1,.44-.11l3,.28a.81.81,0,0,1,.22,0L39,3.33a.7.7,0,0,1,.46.23.56.56,0,0,1,.22.31l.92,2.9a.71.71,0,0,1-.15.7.72.72,0,0,1-.69.22L36.84,7l-2.94.59a.55.55,0,0,1-.22,0L28.16,8.79l-1.51,7.36.88.18a3.63,3.63,0,0,0,4.26-2.82l.17-.92A.72.72,0,0,1,32.6,12l4.64-.48a.67.67,0,0,1,.6,0,1.19,1.19,0,0,1,.33.26,9.11,9.11,0,0,0,5.43,3.37,10.2,10.2,0,0,0,1.82.24.82.82,0,0,1,.3.07l7.51,3.76a3.77,3.77,0,0,1,.54.34,3.8,3.8,0,0,1,.59.23l4,2a3.28,3.28,0,0,1,1.61,1.86,3.23,3.23,0,0,1-.18,2.46,3.21,3.21,0,0,1-4.31,1.43l-.19-.09a3.22,3.22,0,0,1-4.5,3.86L50,30.87a3.21,3.21,0,0,1-4.49,3.87l-1.1-.56a3.26,3.26,0,0,1-.19,2.43,3.19,3.19,0,0,1-2.87,1.77ZM26,16.73h0Z"/><path class="cls-1" d="M12.94,26,0,21.74,7.16.23,20.1,4.54ZM1.82,20.82,12,24.22,18.28,5.45,8.07,2.05Z"/><path class="cls-1" d="M9.3,21.08a1.9,1.9,0,1,1,1.89-1.9A1.9,1.9,0,0,1,9.3,21.08Zm0-2.35a.46.46,0,1,0,.45.45A.45.45,0,0,0,9.3,18.73Z"/><path class="cls-2" d="M35.08,36.94a3.26,3.26,0,0,1-1.51-.36A3.39,3.39,0,0,1,32.05,32l.88-1.75a3.39,3.39,0,0,1,6.07,3l-.88,1.76A3.39,3.39,0,0,1,35.08,36.94ZM36,30.2a1.57,1.57,0,0,0-1.42.88l-.88,1.75a1.59,1.59,0,1,0,2.85,1.43l.88-1.75a1.6,1.6,0,0,0-.71-2.14A1.69,1.69,0,0,0,36,30.2Z"/><path class="cls-2" d="M18.09,28.44a3.39,3.39,0,0,1-3-4.92l.88-1.75a3.38,3.38,0,0,1,4.55-1.51h0a3.33,3.33,0,0,1,1.7,2A3.38,3.38,0,0,1,22,24.81l-.88,1.75a3.36,3.36,0,0,1-2,1.7A3.4,3.4,0,0,1,18.09,28.44ZM19,21.7a1.42,1.42,0,0,0-.5.08,1.55,1.55,0,0,0-.92.8l-.88,1.75a1.59,1.59,0,0,0,.71,2.14,1.61,1.61,0,0,0,2.14-.71L20.4,24a1.54,1.54,0,0,0,.08-1.21,1.56,1.56,0,0,0-.79-.92h0A1.53,1.53,0,0,0,19,21.7Z"/><path class="cls-2" d="M29.49,34.15A3.32,3.32,0,0,1,28,33.79a3.39,3.39,0,0,1-1.52-4.56L29,24.11a3.39,3.39,0,0,1,4.55-1.51h0a3.39,3.39,0,0,1,1.51,4.55l-2.56,5.12a3.35,3.35,0,0,1-2,1.7A3.29,3.29,0,0,1,29.49,34.15ZM32.06,24a1.59,1.59,0,0,0-1.43.88L28.07,30a1.6,1.6,0,0,0,.71,2.14,1.57,1.57,0,0,0,1.22.08,1.55,1.55,0,0,0,.92-.8l2.56-5.11a1.6,1.6,0,0,0-.71-2.14h0A1.51,1.51,0,0,0,32.06,24Z"/><path class="cls-2" d="M23.9,31.35a3.39,3.39,0,0,1-3-4.91L23,22.29a3.38,3.38,0,0,1,4.55-1.51A3.4,3.4,0,0,1,29,25.33l-2.08,4.14a3.35,3.35,0,0,1-2,1.7A3.29,3.29,0,0,1,23.9,31.35ZM26,22.22a1.42,1.42,0,0,0-.5.08,1.55,1.55,0,0,0-.92.8l-2.08,4.14a1.59,1.59,0,1,0,2.85,1.43l2.08-4.15a1.59,1.59,0,0,0-.72-2.13h0A1.49,1.49,0,0,0,26,22.22Z"/><path class="cls-2" d="M57.88,23.24a.91.91,0,0,1-.4-.1l-3.85-1.92a1.38,1.38,0,0,0-.39-.14.84.84,0,0,1-.4-.2,2.19,2.19,0,0,0-.33-.23L45.16,17l-.31,0-.51-.06-.5-.07-.61-.12-.48-.11-.21-.07-.29-.08L42,16.36l-.4-.14.16-.91-.32.85-.81-.36.26-.88-.4.81-.43-.23-.37-.22-.07,0h0a10.13,10.13,0,0,1-2.41-2.08l-3.77.39,0,.27a5.23,5.23,0,0,1-6.17,4.09l-1.41-.28-.16,0a1,1,0,0,1-.72-1.07L26.66,8a1,1,0,0,1,.44-.61,1.3,1.3,0,0,1,.32-.14L33.58,6a.74.74,0,0,1,.26,0l2.62-.53a1,1,0,0,1,.51,0,.79.79,0,0,1,.22,0l10.89,2.4L56,5.21a.9.9,0,1,1,.57,1.71L48.41,9.65a1,1,0,0,1-.48,0L36.84,7.22l-2.91.59a1,1,0,0,1-.24,0L28.31,8.94,26.86,16l.71.14a3.44,3.44,0,0,0,4-2.67l.18-.92a.89.89,0,0,1,.79-.73l4.53-.47.1,0a.88.88,0,0,1,1,.27,8,8,0,0,0,2.3,2.13l0,0,.28.17.36.19L41,15l.4-.81.2.1.14.06.24.11-.18.89.32-.84.26.1-.1.91.3-.84,1,.29.44.08.46.07a4.12,4.12,0,0,0,.45.05l.43,0a.78.78,0,0,1,.37.09L53.31,19a3.77,3.77,0,0,1,.54.34,3.77,3.77,0,0,1,.59.22L58,21.36l2.91-1a.9.9,0,1,1,.57,1.7l-3.26,1.09A1,1,0,0,1,57.88,23.24ZM26,16.73h0Z"/><path class="cls-2" d="M61.89,25.93,54.71,4.37,67.83,0,75,21.56ZM57,5.51l6,18.14,9.7-3.23-6-18.14Z"/><path class="cls-2" d="M65.91,21.26A2.08,2.08,0,1,1,68,19.18,2.08,2.08,0,0,1,65.91,21.26Zm0-2.35a.28.28,0,0,0-.27.27c0,.3.54.31.54,0A.28.28,0,0,0,65.91,18.91Z"/></svg>