<svg id="Layer_4" data-name="Layer 4" xmlns="http://www.w3.org/2000/svg" width="45" height="33.3" viewBox="0 0 45 33.3"><defs><style>.cls-1{fill:#1dcbae;}.cls-2{fill:none;stroke:#111b24;stroke-linejoin:round;}.cls-3{fill:#111b24;}</style></defs><title>payment-cash</title><polygon class="cls-1" points="40.95 6.97 40.05 6.97 40.05 3.15 5.4 3.15 5.4 4.72 4.5 4.72 4.5 2.25 40.95 2.25 40.95 6.97"/><polygon class="cls-1" points="38.25 6.53 37.35 6.53 37.35 4.95 2.7 4.95 2.7 6.53 1.8 6.53 1.8 4.05 38.25 4.05 38.25 6.53"/><path class="cls-2" d="M1226.57,692.31" transform="translate(-1182.36 -668.13)"/><path class="cls-3" d="M1183.26,696.26h-.9V670.63a2.5,2.5,0,0,1,2.5-2.5h39.55a2.5,2.5,0,0,1,2.5,2.5V685h-.9V670.63a1.6,1.6,0,0,0-1.6-1.6h-39.55a1.6,1.6,0,0,0-1.6,1.6Z" transform="translate(-1182.36 -668.13)"/><path class="cls-3" d="M1189.78,701.43h-4.92a2.5,2.5,0,0,1-2.5-2.5V673.3a.45.45,0,0,1,.9,0,1.59,1.59,0,0,0,1.59,1.59h39.56a2.5,2.5,0,0,1,2.5,2.49v3.14h-.9v-3.14a1.6,1.6,0,0,0-1.6-1.59h-39.56a2.51,2.51,0,0,1-1.59-.57v23.71a1.59,1.59,0,0,0,1.6,1.6h4.92Z" transform="translate(-1182.36 -668.13)"/><path class="cls-3" d="M1224.41,701.43H1188v-.9h36.43a1.6,1.6,0,0,0,1.6-1.6v-8.07h.9v8.07A2.5,2.5,0,0,1,1224.41,701.43Z" transform="translate(-1182.36 -668.13)"/><polygon class="cls-3" points="6.97 29.25 3.6 29.25 3.6 10.8 40.95 10.8 40.95 16.88 40.05 16.88 40.05 11.7 4.5 11.7 4.5 28.35 6.97 28.35 6.97 29.25"/><polygon class="cls-3" points="41.4 29.25 6.08 29.25 6.08 28.35 40.5 28.35 40.5 22.73 41.4 22.73 41.4 29.25"/><path class="cls-3" d="M1226.91,691.53h-7.65a.45.45,0,0,1-.45-.45v-5.85a.45.45,0,0,1,.45-.45h7.65a.45.45,0,0,1,.45.45v5.85A.45.45,0,0,1,1226.91,691.53Zm-7.2-.9h6.75v-5h-6.75Z" transform="translate(-1182.36 -668.13)"/><rect class="cls-3" x="39.38" y="19.35" width="1.8" height="0.9"/></svg>