<svg id="Layer_4" data-name="Layer 4" xmlns="http://www.w3.org/2000/svg" width="44.65" height="49.28" viewBox="0 0 44.65 49.28"><defs><style>.cls-1,.cls-2,.cls-3{fill:none;}.cls-1{stroke:#191919;}.cls-1,.cls-3{stroke-miterlimit:10;}.cls-2,.cls-3{stroke:#1dcbae;}</style></defs><title>payment-web</title><polyline class="cls-1" points="9.28 18.95 0.5 18.95 0.5 0.5 44.15 0.5 44.15 18.95 34.92 18.95"/><rect class="cls-1" x="4.1" y="1.85" width="36.45" height="5.4"/><polyline class="cls-1" points="9.28 12.65 5.9 12.65 5.9 7.25 38.75 7.25 38.75 12.65 35.38 12.65"/><line class="cls-2" x1="12.32" y1="11.88" x2="31.32" y2="11.88"/><line class="cls-2" x1="12.32" y1="16.88" x2="31.32" y2="16.88"/><line class="cls-2" x1="12.32" y1="21.88" x2="31.32" y2="21.88"/><line class="cls-2" x1="12.32" y1="24.88" x2="31.32" y2="24.88"/><line class="cls-2" x1="12.32" y1="32.88" x2="21.32" y2="32.88"/><line class="cls-2" x1="12.32" y1="35.88" x2="21.32" y2="35.88"/><circle class="cls-2" cx="-506.43" cy="697.78" r="3.27" transform="translate(-579.73 -576.78) rotate(-80.78)"/><polygon class="cls-3" points="8.82 48.06 12.08 44.77 15.33 48.06 18.59 44.77 21.83 48.06 25.08 44.77 28.33 48.06 31.58 44.77 34.83 48.06 34.83 8.88 8.82 8.88 8.82 48.06"/></svg>