<svg id="Layer_4" data-name="Layer 4" xmlns="http://www.w3.org/2000/svg" width="44" height="28" viewBox="0 0 44 28"><defs><style>.cls-1{fill:#111b24;}.cls-2{fill:#1dcbae;}</style></defs><title>payment-bank</title><path class="cls-1" d="M1212.65,845.28h-38.59a2.7,2.7,0,0,1-2.7-2.7V820a2.71,2.71,0,0,1,2.7-2.71h38.59a2.72,2.72,0,0,1,2.71,2.71v22.59A2.71,2.71,0,0,1,1212.65,845.28Zm-38.59-27a1.71,1.71,0,0,0-1.7,1.71v22.59a1.7,1.7,0,0,0,1.7,1.7h38.59a1.71,1.71,0,0,0,1.71-1.7V820a1.72,1.72,0,0,0-1.71-1.71Z" transform="translate(-1171.36 -817.28)"/><rect class="cls-2" x="4" y="14" width="7" height="1"/><rect class="cls-2" x="4" y="22" width="8" height="1"/><rect class="cls-2" x="4" y="19" width="16" height="1"/><rect class="cls-2" x="13" y="14" width="8" height="1"/><rect class="cls-2" x="23" y="14" width="8" height="1"/><rect class="cls-2" x="18" y="7" width="13" height="1"/><rect class="cls-2" x="32" y="14" width="8" height="1"/><path class="cls-2" d="M1182.36,828.28h-8v-6h8Zm-7-1h6v-4h-6Z" transform="translate(-1171.36 -817.28)"/><path class="cls-2" d="M1207.92,827.55a3,3,0,1,1,3-3A3,3,0,0,1,1207.92,827.55Zm0-5a2,2,0,1,0,2,2A2,2,0,0,0,1207.92,822.53Z" transform="translate(-1171.36 -817.28)"/></svg>