<svg id="Layer_4" data-name="Layer 4" xmlns="http://www.w3.org/2000/svg" width="42.35" height="45" viewBox="0 0 42.35 45"><defs><style>.cls-1{fill:#191919;}.cls-2{fill:#1dcbae;}</style></defs><title>payment-saw</title><path class="cls-1" d="M-101,367.28h-33v-45h24.26l8.74,8.79Zm-32-1h31V331.49l-8.15-8.21H-133Z" transform="translate(143.03 -322.28)"/><path class="cls-1" d="M-101,332.28h-8.5l-.5-.5v-8.5l.86-.35,8.5,8.5Zm-8-1h6.8l-6.8-6.79Z" transform="translate(143.03 -322.28)"/><path class="cls-1" d="M-136,362.28h-5v-40h5Zm-4-1h3v-38h-3Z" transform="translate(143.03 -322.28)"/><path class="cls-1" d="M-137.65,367.28h-1.76l-.49-.41-.89-5,.5-.59h3.53l.49.59-.88,5Zm-1.34-1h.92l.71-4h-2.34Z" transform="translate(143.03 -322.28)"/><rect class="cls-1" x="3" y="25" width="3" height="1"/><rect class="cls-1" x="3" y="22" width="3" height="1"/><polygon class="cls-1" points="1 17 0 17 0 2.5 0.5 2 7 2 7 3 1 3 1 17"/><path class="cls-2" d="M-115,335.28h-14v-4h14Zm-13-1h12v-2h-12Z" transform="translate(143.03 -322.28)"/><path class="cls-2" d="M-105,344.28h-6v-4h6Zm-5-1h4v-2h-4Z" transform="translate(143.03 -322.28)"/><path class="cls-2" d="M-110,344.28h-11v-4h11Zm-10-1h9v-2h-9Z" transform="translate(143.03 -322.28)"/><path class="cls-2" d="M-119,344.28h-10v-4h10Zm-9-1h8v-2h-8Z" transform="translate(143.03 -322.28)"/><path class="cls-2" d="M-105,359.28h-24v-19h24Zm-23-1h22v-17h-22Z" transform="translate(143.03 -322.28)"/><rect class="cls-2" x="14" y="22" width="23" height="1"/><rect class="cls-2" x="32" y="19" width="1" height="18"/><rect class="cls-2" x="23" y="19" width="1" height="18"/><rect class="cls-2" x="29" y="40" width="9" height="1"/></svg>