<svg id="Layer_4" data-name="Layer 4" xmlns="http://www.w3.org/2000/svg" width="45.26" height="42" viewBox="0 0 45.26 42">
  <defs>
    <style>
      .cls-1 {
        fill: #111b24;
      }

      .cls-2 {
        fill: #1dcbae;
      }
    </style>
  </defs>
  <title>sale-refund</title>
  <g>
    <path class="cls-1" d="M36,12H35V8.71A7.72,7.72,0,0,0,27.29,1H23.71A7.72,7.72,0,0,0,16,8.71V12H15V8.71A8.72,8.72,0,0,1,23.71,0h3.58A8.72,8.72,0,0,1,36,8.71Z"/>
    <polygon class="cls-1" points="36 42 0 42 0 11 40 11 40 38 39 38 39 12 1 12 1 41 36 41 36 42"/>
    <path class="cls-1" d="M31,17H30V8.71A7.72,7.72,0,0,0,22.29,1H18.71A7.72,7.72,0,0,0,11,8.71V17H10V8.71A8.72,8.72,0,0,1,18.71,0h3.58A8.72,8.72,0,0,1,31,8.71Z"/>
    <path class="cls-1" d="M45,42H36V11h9Zm-8-1h7V12H37Z"/>
    <path class="cls-1" d="M45.26,42H34.54l5.36-4.81Zm-8.11-1h5.5L39.9,38.53Z"/>
  </g>
  <g>
    <g>
      <polygon class="cls-2" points="15.14 28.75 13.36 25.65 10.25 27.43 9.75 26.57 13.72 24.29 16.01 28.26 15.14 28.75"/>
      <path class="cls-2" d="M18.63,35.7a8.44,8.44,0,0,1-5.81-10.41l1,.28a7.44,7.44,0,0,0,5.12,9.17Z"/>
    </g>
    <g>
      <polygon class="cls-2" points="24.77 37.62 20.81 35.32 23.1 31.35 23.97 31.85 22.17 34.95 25.27 36.75 24.77 37.62"/>
      <path class="cls-2" d="M22.13,35.6l-.24-1a7.43,7.43,0,0,0,5.38-9l1-.24A8.42,8.42,0,0,1,22.13,35.6Z"/>
    </g>
    <g>
      <polygon class="cls-2" points="26.96 23.59 21.96 23.59 21.96 22.59 25.96 22.59 25.97 18.59 26.97 18.59 26.96 23.59"/>
      <path class="cls-2" d="M25.88,22.78a7.4,7.4,0,0,0-5.22-2.25,7.51,7.51,0,0,0-5.29,2.1l-.7-.71a8.45,8.45,0,0,1,6-2.39,8.36,8.36,0,0,1,5.92,2.55Z"/>
    </g>
  </g>
</svg>
