<svg id="Layer_4" data-name="Layer 4" xmlns="http://www.w3.org/2000/svg" width="45.26" height="42" viewBox="0 0 45.26 42"><defs><style>.cls-1{fill:#111b24;}.cls-2{fill:#1dcbae;}</style></defs><title>sale-cancel</title><path class="cls-1" d="M36,12H35V8.71A7.72,7.72,0,0,0,27.29,1H23.71A7.72,7.72,0,0,0,16,8.71V12H15V8.71A8.72,8.72,0,0,1,23.71,0h3.58A8.72,8.72,0,0,1,36,8.71Z"/><polygon class="cls-1" points="36 42 0 42 0 11 40 11 40 38 39 38 39 12 1 12 1 41 36 41 36 42"/><path class="cls-1" d="M31,17H30V8.71A7.72,7.72,0,0,0,22.29,1H18.71A7.72,7.72,0,0,0,11,8.71V17H10V8.71A8.72,8.72,0,0,1,18.71,0h3.58A8.72,8.72,0,0,1,31,8.71Z"/><path class="cls-1" d="M45,42H36V11h9Zm-8-1h7V12H37Z"/><path class="cls-1" d="M45.26,42H34.54l5.36-4.81Zm-8.11-1h5.5L39.9,38.53Z"/><path class="cls-2" d="M20,37.07a9.5,9.5,0,1,1,9.5-9.5A9.51,9.51,0,0,1,20,37.07Zm0-18a8.5,8.5,0,1,0,8.5,8.5A8.51,8.51,0,0,0,20,19.07Z"/><path class="cls-2" d="M22.86,33.36,20,30.5l-2.86,2.86-2.92-2.92,2.86-2.87-2.86-2.86,2.92-2.92L20,24.65l2.86-2.86,2.92,2.92-2.86,2.86,2.86,2.87ZM20,29.08l2.86,2.86,1.51-1.5-2.86-2.87,2.86-2.86-1.51-1.5L20,26.07l-2.86-2.86-1.51,1.5,2.86,2.86-2.86,2.87,1.51,1.5Z"/></svg>