<svg id="Layer_1" data-name="Layer 1" xmlns="http://www.w3.org/2000/svg" width="34.09" height="47.36" viewBox="0 0 34.09 47.36"><defs><style>.cls-1{fill:#22e5c5;}.cls-2{fill:#0a0d11;}</style></defs><title>transport-troilbus</title><path class="cls-1" d="M20.87,36.65H13a.63.63,0,0,1-.63-.63.63.63,0,0,1,.63-.63h7.88a.63.63,0,0,1,.63.63A.63.63,0,0,1,20.87,36.65Z"/><path class="cls-2" d="M30.87,39.31a.65.65,0,0,1-.63-.65V16.79a.63.63,0,0,1,1.26,0V38.66A.65.65,0,0,1,30.87,39.31Z"/><path class="cls-2" d="M3.15,39.31a.65.65,0,0,1-.63-.65V16.79a.63.63,0,0,1,1.26,0h0V38.66A.65.65,0,0,1,3.15,39.31Z"/><path class="cls-2" d="M30.87,19.59a.63.63,0,0,1-.63-.63h0V13.07A2.24,2.24,0,0,0,28,10.82H6a2.25,2.25,0,0,0-2.25,2.25V19a.63.63,0,1,1-1.26,0V13A3.44,3.44,0,0,1,6,9.56H28a3.44,3.44,0,0,1,3.5,3.38v6a.62.62,0,0,1-.62.64Z"/><path class="cls-1" d="M29.61,30.11a.24.24,0,0,1-.24.24H4.69a.63.63,0,0,1-.63-.63.63.63,0,0,1,.63-.63H28.35V27.88a1.1,1.1,0,0,0-.28-.77c-2.13-2.41-5.07-1.4-5.8.7a.6.6,0,0,1-.77.4h0a.63.63,0,0,1-.4-.79c1-3,5.1-4.34,8.08-1.05a1.77,1.77,0,0,1,.45,1.14Z"/><path class="cls-2" d="M22.57,37.51a.58.58,0,0,1-.6-.57h0a2.13,2.13,0,0,1,2.11-2.12.6.6,0,0,1,.5.69.59.59,0,0,1-.5.5.93.93,0,0,0-.92.93.59.59,0,0,1-.59.58Z"/><path class="cls-2" d="M26,39.19H24.77a.63.63,0,0,1-.63-.63.63.63,0,0,1,.63-.63H26a.94.94,0,0,0,1.06-.83A1,1,0,0,0,26.24,36H24.09a.63.63,0,0,1-.63-.63.64.64,0,0,1,.63-.63H26A2.15,2.15,0,0,1,28,36a2.22,2.22,0,0,1-1,3A2.07,2.07,0,0,1,26,39.19Z"/><path class="cls-2" d="M11.3,37.51a.58.58,0,0,1-.6-.57h0A.94.94,0,0,0,9.8,36a.6.6,0,0,1-.69-.5.61.61,0,0,1,.51-.69.54.54,0,0,1,.18,0,2.14,2.14,0,0,1,2.1,2.12.58.58,0,0,1-.59.58Z"/><path class="cls-2" d="M9.09,39.19H7.85a2.09,2.09,0,0,1-2-1.23,2.21,2.21,0,0,1,1-3,2.15,2.15,0,0,1,1-.23H9.8a.63.63,0,0,1,.63.63A.63.63,0,0,1,9.8,36h-2A1,1,0,0,0,7,37.1a1,1,0,0,0,.83.83H9.09a.64.64,0,0,1,.63.63A.63.63,0,0,1,9.09,39.19Z"/><path class="cls-2" d="M6.58,47.36H5.39a2.24,2.24,0,0,1-2.24-2.24V40.59a.63.63,0,1,1,1.26,0v4.53a1.05,1.05,0,0,0,1,1.05H6.52a1.05,1.05,0,0,0,1-1.05v-3a.63.63,0,0,1,1.26,0v3a2.24,2.24,0,0,1-2.24,2.24Z"/><path class="cls-2" d="M28.63,47.36H27.44a2.24,2.24,0,0,1-2.24-2.24v-3a.63.63,0,1,1,1.26,0h0v2.9a1.05,1.05,0,0,0,1,1.05h1.07a1.05,1.05,0,0,0,1-1.05V40.59a.63.63,0,0,1,1.26,0v4.6A2.24,2.24,0,0,1,28.63,47.36Z"/><path class="cls-2" d="M26.11,44.79H7.74a.63.63,0,0,1-.63-.63.63.63,0,0,1,.63-.63H26.11a.63.63,0,0,1,.63.63.63.63,0,0,1-.63.63Z"/><path class="cls-2" d="M27.86,42.32H6.16a3.66,3.66,0,0,1-3.64-3.66V34.55a.63.63,0,0,1,1.26,0v4.06a2.45,2.45,0,0,0,2.45,2.45H27.79a2.45,2.45,0,0,0,2.45-2.45V34.55a.63.63,0,0,1,1.26,0h0v4.11A3.66,3.66,0,0,1,27.86,42.32Z"/><path class="cls-2" d="M22.68,39.84a.63.63,0,0,1-.63-.63h0V36.94a.63.63,0,1,1,1.26,0v2.25a.64.64,0,0,1-.62.65Z"/><path class="cls-2" d="M11.34,39.84a.63.63,0,0,1-.63-.63V37A.63.63,0,0,1,12,37v2.21a.64.64,0,0,1-.62.65Z"/><path class="cls-1" d="M29.61,15.86H4.2a.63.63,0,0,1-.63-.63.63.63,0,0,1,.63-.63H29.61a.63.63,0,0,1,.63.63.63.63,0,0,1-.63.63Z"/><path class="cls-1" d="M24.6,13.34H9.2a.63.63,0,0,1-.63-.63.63.63,0,0,1,.63-.63H24.6a.63.63,0,0,1,.63.63A.63.63,0,0,1,24.6,13.34Z"/><path class="cls-2" d="M3.25,27.83H1.85A1.9,1.9,0,0,1,0,25.94V20.27a1.87,1.87,0,0,1,1.86-1.89H3.29a.63.63,0,0,1,.63.63.63.63,0,0,1-.63.63H2a.68.68,0,0,0-.7.67h0v5.6a.7.7,0,0,0,.7.7H3.25a.63.63,0,1,1,0,1.26Z"/><path class="cls-2" d="M32.2,27.83H30.8a.63.63,0,0,1-.63-.63.63.63,0,0,1,.63-.63h1.29a.71.71,0,0,0,.7-.7v-5.6a.7.7,0,0,0-.7-.7H30.8a.63.63,0,0,1-.63-.63.63.63,0,0,1,.63-.63h1.4a1.87,1.87,0,0,1,1.89,1.86v5.7a1.88,1.88,0,0,1-1.82,1.95Z"/><path class="cls-1" d="M20.4,8.74a.61.61,0,0,1-.42.19h-6.5A.64.64,0,0,1,13,7.85L20.69.18a.65.65,0,0,1,.9,0,.62.62,0,0,1,0,.89h0L15,7.67h4.72L27.19.18a.64.64,0,0,1,.89,0,.63.63,0,0,1,0,.89h0Z"/></svg>