<svg id="Layer_1" data-name="Layer 1" xmlns="http://www.w3.org/2000/svg" width="31.59" height="44.08" viewBox="0 0 31.59 44.08"><defs><style>.cls-1{fill:#0a0d11;}.cls-2{fill:#21e7c6;}</style></defs><title>transport-metro</title><path class="cls-1" d="M25,49.12c-8.84,0-11.64-2-11.75-2a.7.7,0,0,1-.18-.2l-.5-1a12.32,12.32,0,0,1-1.47-5.85V33.57a.63.63,0,1,1,1.26,0v7.86a5.8,5.8,0,0,0,.7,2.76l1,2c.56.31,3.47,1.74,10.9,1.74s10.31-1.42,10.88-1.74l1-2a5.68,5.68,0,0,0,.69-2.76V33.57a.64.64,0,0,1,.64-.63.63.63,0,0,1,.63.63v6.5a12.52,12.52,0,0,1-1.47,5.87l-.51.94a.49.49,0,0,1-.18.2C36.63,47.16,33.84,49.12,25,49.12Z" transform="translate(-9.21 -12.85)"/><path class="cls-1" d="M38.27,27.81a.64.64,0,0,1-.64-.64V22.75A8.63,8.63,0,0,0,29,14.11H21a8.65,8.65,0,0,0-8.65,8.63h0v4.42a.63.63,0,1,1-1.26,0V22.68a9.84,9.84,0,0,1,9.84-9.83h8.12a9.84,9.84,0,0,1,9.84,9.83v4.49A.64.64,0,0,1,38.27,27.81Z" transform="translate(-9.21 -12.85)"/><path class="cls-2" d="M31.75,36.22H17.85a.63.63,0,0,1-.51-.27C15,32.11,14.63,26.11,14.5,19.8a.63.63,0,0,1,.28-.52c.11-.12,1.26-.75,4.74-.75h10.9c3.39,0,4.32.63,4.52.8a.68.68,0,0,1,.17.47C35,26.35,34.65,32.08,32.23,36A.59.59,0,0,1,31.75,36.22ZM18.27,35H31.36c2-3.52,2.35-8.77,2.48-14.77a10.71,10.71,0,0,0-3.47-.39H19.57a12.11,12.11,0,0,0-3.79.43C15.92,26,16.24,31.47,18.27,35Z" transform="translate(-9.21 -12.85)"/><path class="cls-2" d="M31.84,43.65a2.42,2.42,0,1,1,2.42-2.42A2.42,2.42,0,0,1,31.84,43.65Zm0-3.64a1.23,1.23,0,1,0,1.22,1.22h0A1.22,1.22,0,0,0,31.84,40Z" transform="translate(-9.21 -12.85)"/><path class="cls-2" d="M18.11,43.65a2.42,2.42,0,1,1,2.42-2.42h0A2.43,2.43,0,0,1,18.11,43.65Zm0-3.64a1.23,1.23,0,1,0,1.2,1.24v0A1.22,1.22,0,0,0,18.11,40Z" transform="translate(-9.21 -12.85)"/><path class="cls-1" d="M25,49.32a.63.63,0,0,1-.63-.63V40.78a.63.63,0,1,1,1.26,0v7.91A.63.63,0,0,1,25,49.32Z" transform="translate(-9.21 -12.85)"/><path class="cls-1" d="M25,52.15c-1.52,0-3.05-.07-4.56-.19l-5.69-.48a.6.6,0,0,1,.1-1.19l5.69.47a51.63,51.63,0,0,0,8.88,0l5.69-.47a.6.6,0,0,1,.68.51.61.61,0,0,1-.51.68h-.07L29.52,52C28,52.08,26.5,52.15,25,52.15Z" transform="translate(-9.21 -12.85)"/><path class="cls-1" d="M35.15,51.48H35a.63.63,0,0,1-.42-.73l1.17-4.32a.58.58,0,0,1,.71-.43h0a.64.64,0,0,1,.43.73L35.74,51A.62.62,0,0,1,35.15,51.48Z" transform="translate(-9.21 -12.85)"/><path class="cls-1" d="M14.8,51.48a.6.6,0,0,1-.58-.44l-1.13-4.31a.6.6,0,1,1,1.17-.3h0l1.11,4.32a.59.59,0,0,1-.41.73H14.8Z" transform="translate(-9.21 -12.85)"/><path class="cls-1" d="M13.16,34.33H11.39a2.18,2.18,0,0,1-2.18-2.19V30.19A2.18,2.18,0,0,1,11.39,28h.87a.63.63,0,1,1,0,1.26h-.8a1,1,0,0,0-1,1v1.82a1,1,0,0,0,1,1h1.7a.64.64,0,0,1,0,1.27Z" transform="translate(-9.21 -12.85)"/><path class="cls-1" d="M38.61,34.33H36.83a.64.64,0,0,1,0-1.27h1.71a1,1,0,0,0,1-1h0V30.26a1,1,0,0,0-1-1h-.8a.63.63,0,1,1,0-1.26h.87a2.18,2.18,0,0,1,2.18,2.18v1.95A2.18,2.18,0,0,1,38.61,34.33Z" transform="translate(-9.21 -12.85)"/><path class="cls-1" d="M38.18,56.92a.59.59,0,0,1-.52-.31l-3-5.44a.58.58,0,0,1,.23-.8h0a.62.62,0,0,1,.81.22l3,5.44a.64.64,0,0,1-.23.82A.59.59,0,0,1,38.18,56.92Z" transform="translate(-9.21 -12.85)"/><path class="cls-1" d="M11.76,56.92a.62.62,0,0,1-.57-.68.54.54,0,0,1,.05-.21l3-5.44a.63.63,0,0,1,.82-.22.59.59,0,0,1,.23.8h0l-3,5.44A.62.62,0,0,1,11.76,56.92Z" transform="translate(-9.21 -12.85)"/><path class="cls-1" d="M35,55.17H14.89a.63.63,0,1,1,0-1.26H35a.63.63,0,0,1,0,1.26Z" transform="translate(-9.21 -12.85)"/><path class="cls-2" d="M31.63,17.27H18.32a.63.63,0,1,1,0-1.26H31.63a.63.63,0,1,1,0,1.26Z" transform="translate(-9.21 -12.85)"/></svg>