<svg id="Layer_1" data-name="Layer 1" xmlns="http://www.w3.org/2000/svg" width="33.6" height="47.61" viewBox="0 0 33.6 47.61"><defs><style>.cls-1{fill:#0a0d11;}.cls-2{fill:#22e5c5;}</style></defs><title>transport-tram</title><path class="cls-1" d="M12,33.31c-8.4,0-11.07-1.86-11.2-2a.37.37,0,0,1-.18-.19l-.48-.89a11.86,11.86,0,0,1-1.4-5.6V14.2a.6.6,0,0,1,.6-.6.6.6,0,0,1,.61.6V24.64A10.78,10.78,0,0,0,1.21,29.7l.4.74c.59.33,3.29,1.68,10.39,1.68s9.8-1.4,10.37-1.65l.41-.75a10.72,10.72,0,0,0,1.27-5V14.2a.6.6,0,0,1,1.19,0V24.64a11.86,11.86,0,0,1-1.4,5.6l-.47.88a.55.55,0,0,1-.17.2C23.05,31.45,20.4,33.31,12,33.31Z" transform="translate(4.8 6.8)"/><path class="cls-1" d="M24.6,12.48a.6.6,0,0,1-.59-.59h0V9.4a7,7,0,0,0-7-7H6.89a7,7,0,0,0-7,7v2.49a.6.6,0,0,1-.6.6.6.6,0,0,1-.6-.6V9.4A8.18,8.18,0,0,1,6.88,1.23H17.05A8.19,8.19,0,0,1,25.22,9.4v2.49a.6.6,0,0,1-.59.59Z" transform="translate(4.8 6.8)"/><path class="cls-2" d="M5.5,21.73a.61.61,0,0,1-.5-.28c-2.42-3.84-2.62-7.29-2.73-12.6A2.9,2.9,0,0,1,5.13,5.91H18.79a2.88,2.88,0,0,1,2.88,2.88c-.11,5.34-.29,8.77-2.68,12.6a.62.62,0,0,1-.51.28l-13,.07ZM5.15,7.09A1.69,1.69,0,0,0,3.46,8.78c.11,5,.28,8.29,2.38,11.75H18.15c2.07-3.46,2.24-6.57,2.33-11.67a1.71,1.71,0,0,0-1.69-1.72h0Z" transform="translate(4.8 6.8)"/><path class="cls-2" d="M19.36,27.29A2.34,2.34,0,1,1,21.7,25a2.33,2.33,0,0,1-2.34,2.34Zm0-3.49A1.15,1.15,0,1,0,20.51,25h0A1.15,1.15,0,0,0,19.36,23.8Z" transform="translate(4.8 6.8)"/><path class="cls-2" d="M4.58,27.29A2.34,2.34,0,1,1,6.92,25a2.34,2.34,0,0,1-2.34,2.34Zm0-3.49A1.15,1.15,0,1,0,5.73,25h0A1.16,1.16,0,0,0,4.58,23.8Z" transform="translate(4.8 6.8)"/><path class="cls-1" d="M12,36.23a36,36,0,0,1-4.37-.18L2.2,35.6A.6.6,0,0,1,1.57,35a.61.61,0,0,1,.57-.63H2.3l5.42.47a52.94,52.94,0,0,0,8.54,0l5.41-.47a.6.6,0,0,1,.26,1.18.43.43,0,0,1-.16,0l-5.42.45C14.88,36.18,13.4,36.23,12,36.23Z" transform="translate(4.8 6.8)"/><path class="cls-1" d="M21.72,35.6h-.16a.59.59,0,0,1-.42-.71h0l1.08-4.2a.59.59,0,0,1,.72-.43h0a.59.59,0,0,1,.43.72L22.29,35.2A.59.59,0,0,1,21.72,35.6Z" transform="translate(4.8 6.8)"/><path class="cls-1" d="M2.2,35.6a.61.61,0,0,1-.55-.4L.56,31A.59.59,0,0,1,1,30.29a.59.59,0,0,1,.69.4l1.08,4.2a.57.57,0,0,1-.41.72h0Z" transform="translate(4.8 6.8)"/><path class="cls-1" d="M24.6,40.8a.59.59,0,0,1-.52-.31l-2.9-5.21a.6.6,0,0,1,.24-.8.58.58,0,0,1,.8.23h0l2.9,5.21a.6.6,0,0,1-.23.81A1,1,0,0,1,24.6,40.8Z" transform="translate(4.8 6.8)"/><path class="cls-1" d="M-.6,40.8a.71.71,0,0,1-.29,0A.6.6,0,0,1-1.12,40l2.9-5.21a.6.6,0,0,1,.81-.24.58.58,0,0,1,.23.8h0l-3,5.15A.59.59,0,0,1-.6,40.8Z" transform="translate(4.8 6.8)"/><path class="cls-1" d="M21.1,39H2.9a.6.6,0,0,1-.69-.5.34.34,0,0,1,0-.1.6.6,0,0,1,.6-.61H21a.59.59,0,0,1,.59.59v0A.6.6,0,0,1,21.1,39Z" transform="translate(4.8 6.8)"/><path class="cls-1" d="M14.87,35.93h-.18a.6.6,0,0,1-.39-.75l.79-2.53v-3a3.12,3.12,0,0,0-6.23,0v3l.79,2.56a.6.6,0,0,1-1.14.35h0l-.82-2.62a.54.54,0,0,1,0-.18V29.6a4.31,4.31,0,1,1,8.62,0h0v3.12a.54.54,0,0,1,0,.18l-.82,2.62A.61.61,0,0,1,14.87,35.93Z" transform="translate(4.8 6.8)"/><path class="cls-1" d="M-2.42,18h-.22A2.16,2.16,0,0,1-4.8,15.84V13.68a2.16,2.16,0,0,1,2.16-2.16H.9a.6.6,0,0,1,.5.69.59.59,0,0,1-.5.5H-2.64a1,1,0,0,0-1,1v2.16a1,1,0,0,0,1,1h.22a.61.61,0,0,1,.69.51.6.6,0,0,1-.51.68A.54.54,0,0,1-2.42,18Z" transform="translate(4.8 6.8)"/><path class="cls-1" d="M26.59,18h-.23a.6.6,0,0,1-.18-1.19.54.54,0,0,1,.18,0h.23a1,1,0,0,0,1-1h0V13.68a1,1,0,0,0-1-1H23.05a.6.6,0,0,1-.51-.68.62.62,0,0,1,.51-.51h3.54a2.16,2.16,0,0,1,2.21,2.1v2.22A2.15,2.15,0,0,1,26.64,18Z" transform="translate(4.8 6.8)"/><path class="cls-2" d="M12-.42a.58.58,0,0,1-.41-.17.62.62,0,0,1,0-.84l4.5-4.8a.6.6,0,0,1,.84,0,.6.6,0,0,1,0,.84L12.41-.6A.59.59,0,0,1,12-.42Z" transform="translate(4.8 6.8)"/><path class="cls-2" d="M12-.42a.58.58,0,0,1-.43-.18L7-5.4a.59.59,0,0,1,.13-.82.59.59,0,0,1,.68,0l4.55,4.8a.6.6,0,0,1,0,.84A.53.53,0,0,1,12-.42Z" transform="translate(4.8 6.8)"/><path class="cls-2" d="M22.26-3.37a.81.81,0,0,1-.22,0L17.52-5.18a6.47,6.47,0,0,0-2.3-.43H8.72a6.58,6.58,0,0,0-2.32.43L1.91-3.41a.59.59,0,0,1-.77-.34.59.59,0,0,1,.33-.77L6-6.28a7.28,7.28,0,0,1,2.8-.52h6.43A7.12,7.12,0,0,1,18-6.28l4.52,1.76a.58.58,0,0,1,.34.76h0A.58.58,0,0,1,22.26-3.37Z" transform="translate(4.8 6.8)"/><path class="cls-2" d="M12,2.21a.6.6,0,0,1-.63-.57V-1A.6.6,0,0,1,12-1.61h0a.59.59,0,0,1,.6.58h0V1.6a.59.59,0,0,1-.59.61Z" transform="translate(4.8 6.8)"/></svg>