<svg id="Layer_1" data-name="Layer 1" xmlns="http://www.w3.org/2000/svg" width="35.1" height="35.69" viewBox="0 0 35.1 35.69"><defs><style>.cls-1{fill:#22e5c5;}.cls-2{fill:#0a0d11;}</style></defs><title>transport-bus</title><path class="cls-1" d="M21.63,23.4H13.51a.59.59,0,1,1,0-1.17h8.12a.59.59,0,1,1,0,1.17Z"/><path class="cls-2" d="M30.42,27.74a.59.59,0,0,1-.59-.58h0V6.79a.59.59,0,0,1,.59-.59.58.58,0,0,1,.58.58h0V27.16A.58.58,0,0,1,30.42,27.74Z"/><path class="cls-2" d="M4.68,27.74a.59.59,0,0,1-.59-.58h0V6.79a.59.59,0,0,1,.59-.59.58.58,0,0,1,.58.59h0V27.16a.57.57,0,0,1-.58.58Z"/><path class="cls-2" d="M30.42,6a.58.58,0,0,1-.52-.58V3.26a2.1,2.1,0,0,0-2.09-2.09H7.36A2.09,2.09,0,0,0,5.27,3.26V5.4A.59.59,0,0,1,4.68,6,.58.58,0,0,1,4.1,5.4V3.2A3.19,3.19,0,0,1,7.29,0H27.81A3.19,3.19,0,0,1,31,3.2V5.4A.58.58,0,0,1,30.42,6Z"/><path class="cls-1" d="M29.25,19.08a.21.21,0,0,1-.19.23H6.11a.6.6,0,0,1-.59-.59.59.59,0,0,1,.59-.58h22V17a1,1,0,0,0-.25-.7c-2-2.25-4.7-1.37-5.39.63a.59.59,0,0,1-.74.38h0a.6.6,0,0,1-.37-.75c1-2.79,4.73-4,7.5-1a1.58,1.58,0,0,1,.42,1.07Z"/><path class="cls-2" d="M2.6,11.12H2.33A2.33,2.33,0,0,1,0,8.79V7A2.33,2.33,0,0,1,2.33,4.68H5.69a.59.59,0,1,1,0,1.17H2.39A1.22,1.22,0,0,0,1.17,7.07h0V8.72A1.23,1.23,0,0,0,2.39,10H2.6a.59.59,0,0,1,.59.58A.6.6,0,0,1,2.6,11.12Z"/><path class="cls-2" d="M32.77,11.12H32.5a.6.6,0,0,1-.59-.59A.59.59,0,0,1,32.5,10h.25A1.23,1.23,0,0,0,34,8.72h0V7.07a1.22,1.22,0,0,0-1.22-1.22H29.41a.59.59,0,1,1,0-1.17h3.36A2.33,2.33,0,0,1,35.1,7V8.79a2.33,2.33,0,0,1-2.33,2.33Z"/><path class="cls-2" d="M22.8,26.09a.56.56,0,0,1-.56-.56h0a2,2,0,0,1,2-2,.55.55,0,0,1,.63.47.56.56,0,0,1-.46.64h-.17a.85.85,0,0,0-.85.84.56.56,0,0,1-.56.56Z"/><path class="cls-2" d="M26,27.49H24.88a.58.58,0,0,1,0-1.16H26a.89.89,0,0,0,0-1.76H24.22a.59.59,0,1,1,0-1.17H26a2,2,0,0,1,1.82,1.13,2,2,0,0,1-.93,2.75A2,2,0,0,1,26,27.49Z"/><path class="cls-2" d="M12.34,26.09a.55.55,0,0,1-.55-.54v0a.85.85,0,0,0-.86-.83.56.56,0,0,1,0-1.11,2,2,0,0,1,2,1.95A.56.56,0,0,1,12.34,26.09Z"/><path class="cls-2" d="M10.3,27.49H9.1a1.94,1.94,0,0,1-1.82-1.13,2.07,2.07,0,0,1,1-2.76,2.21,2.21,0,0,1,.92-.2h1.75a.59.59,0,1,1,0,1.17H9.1a.89.89,0,0,0-.21,1.76h1.37a.57.57,0,0,1,.58.58.58.58,0,0,1-.58.58h0Z"/><path class="cls-2" d="M7.87,35.69H6.76a2.08,2.08,0,0,1-2.08-2.06V29.35a.59.59,0,0,1,1.17,0v4.2a1,1,0,0,0,1,1h1a1,1,0,0,0,1-1v-2.7a.59.59,0,1,1,1.17,0V33.6a2.05,2.05,0,0,1-2,2.08Z"/><path class="cls-2" d="M28.34,35.69h-1a2.08,2.08,0,0,1-2.08-2.06V30.85a.59.59,0,1,1,1.17,0v2.7a1,1,0,0,0,1,1h1a1,1,0,0,0,1-1v-4.2a.59.59,0,0,1,.59-.58.58.58,0,0,1,.58.58h0v4.26a2.07,2.07,0,0,1-2.05,2.08Z"/><path class="cls-2" d="M26.09,32.76H9.1a.59.59,0,1,1,0-1.17h17a.59.59,0,1,1,0,1.17Z"/><path class="cls-2" d="M27.63,31H7.48A3.39,3.39,0,0,1,4.1,27.63V23.79a.59.59,0,0,1,.58-.59.6.6,0,0,1,.59.59v3.77a2.27,2.27,0,0,0,2.2,2.34H27.56a2.27,2.27,0,0,0,2.34-2.21v-3.9a.59.59,0,0,1,1.17,0v3.84A3.4,3.4,0,0,1,27.66,31Z"/><path class="cls-2" d="M12.28,30.74a.58.58,0,0,1-.58-.58V25.53a.59.59,0,0,1,1.17,0v4.63A.58.58,0,0,1,12.28,30.74Z"/><path class="cls-2" d="M22.81,30.65a.58.58,0,0,1-.58-.58h0V25.48a.59.59,0,1,1,1.17,0h0v4.59A.58.58,0,0,1,22.81,30.65Z"/><path class="cls-2" d="M30.55,5.85h-26a.59.59,0,1,1,0-1.17h26a.59.59,0,1,1,0,1.17Z"/><path class="cls-1" d="M23.86,3.51H11.27a.59.59,0,0,1,0-1.17H23.86a.59.59,0,0,1,0,1.17Z"/></svg>