<svg xmlns="http://www.w3.org/2000/svg" width="31.641" height="31.214" viewBox="0 0 31.641 31.214">
  <title>zoom-in</title>
  <g id="Layer_1" data-name="Layer 1">
    <path d="M16.512,11.425H14.2V9.113a1.5,1.5,0,1,0-3-.013v2.325H8.888a1.5,1.5,0,1,0-.013,3H11.2v2.312a1.5,1.5,0,1,0,3,.013V14.425h2.325a1.5,1.5,0,1,0-.013-3Z" style="fill: #ff7308"/>
    <path d="M23.618,19.574a12.791,12.791,0,1,0-3.529,3.7l7.187,7.187a2.557,2.557,0,1,0,3.617-3.616ZM12.785,21.427a8.643,8.643,0,1,1,8.642-8.643A8.642,8.642,0,0,1,12.785,21.427Z" style="fill: #ff7308"/>
    <path d="M12.785,4.141a8.643,8.643,0,1,0,8.642,8.643A8.643,8.643,0,0,0,12.785,4.141Zm3.726,10.284H14.2v2.312a1.5,1.5,0,1,1-3,.013V14.425H8.888a1.5,1.5,0,1,1-.013-3H11.2V9.113a1.5,1.5,0,1,1,3-.013v2.325h2.325a1.5,1.5,0,1,1-.013,3Z" style="fill: #fff"/>
  </g>
</svg>
