<svg id="Isolation_Mode" data-name="Isolation Mode" xmlns="http://www.w3.org/2000/svg" width="18.111mm" height="18.08mm" viewBox="0 0 51.337 51.251">
  <title>basket</title>
  <g>
    <path d="M1969.558,379.98l-1.669-7.417a2.158,2.158,0,0,0-1.488-1.614l-6.928-2.307a1.5,1.5,0,0,0-1.977,1.438,1.537,1.537,0,0,0,1.091,1.429l6.474,2.153,7.169,31.863a2.279,2.279,0,0,0,2.237,1.791h28.616a1.5,1.5,0,0,0,0-3h-28.051l-1.125-5H2003a2.361,2.361,0,0,0,2.29-1.786l3.542-14.092Z" transform="translate(-1957.496 -368.564)"/>
    <circle cx="21.171" cy="46.751" r="4.5"/>
    <circle cx="39.171" cy="46.751" r="4.5"/>
  </g>
</svg>
