<svg id="Layer_3" data-name="Layer 3" xmlns="http://www.w3.org/2000/svg" width="20.665" height="20.666" viewBox="0 0 20.665 20.666"><defs><style>.cls-1{fill:#35424b;}</style></defs><title>clock</title><path class="cls-1" d="M667.833,646.316a10.333,10.333,0,1,1,10.333-10.332,10.343,10.343,0,0,1-10.333,10.332Zm0-19.666a9.333,9.333,0,1,0,9.333,9.334,9.345,9.345,0,0,0-9.333-9.334Z" transform="translate(-657.501 -625.65)"/><path class="cls-1" d="M667.5,636.439a.5.5,0,0,1-.5-.5V629.75a.5.5,0,0,1,1,0v6.189a.5.5,0,0,1-.5.5Z" transform="translate(-657.501 -625.65)"/><path class="cls-1" d="M667.5,628.555a.5.5,0,0,1-.5-.5v-.334a.5.5,0,0,1,1,0v.334a.5.5,0,0,1-.5.5Z" transform="translate(-657.501 -625.65)"/><path class="cls-1" d="M667.5,644.746a.5.5,0,0,1-.5-.5v-.332a.5.5,0,0,1,1,0v.332a.5.5,0,0,1-.5.5Z" transform="translate(-657.501 -625.65)"/><path class="cls-1" d="M676.1,636h-.334a.5.5,0,0,1,0-1h.334a.5.5,0,0,1,0,1Z" transform="translate(-657.501 -625.65)"/><path class="cls-1" d="M659.905,636h-.332a.5.5,0,1,1,0-1h.332a.5.5,0,0,1,0,1Z" transform="translate(-657.501 -625.65)"/></svg>