<svg id="Layer_3" data-name="Layer 3" xmlns="http://www.w3.org/2000/svg" width="22.03" height="15.75" viewBox="0 0 22.03 15.75"><title>eye</title><path d="M11,0A11.42,11.42,0,0,0,0,7.72.55.55,0,0,0,0,8a11.42,11.42,0,0,0,11,7.72A11.4,11.4,0,0,0,22,8a.55.55,0,0,0,0-.31A11.41,11.41,0,0,0,11,0Zm0,14.75A10.43,10.43,0,0,1,1,7.88,10.42,10.42,0,0,1,11,1,10.43,10.43,0,0,1,21,7.88,10.43,10.43,0,0,1,11,14.75Z"/><path d="M11,3a.5.5,0,0,0,0,1A3.92,3.92,0,1,1,7.1,7.88a.5.5,0,0,0-.5-.5.5.5,0,0,0-.5.5A4.92,4.92,0,1,0,11,3Z"/></svg>