<svg id="Isolation_Mode" data-name="Isolation Mode" xmlns="http://www.w3.org/2000/svg" width="5.38mm" height="6.791mm" viewBox="0 0 15.25 19.25">
  <title>geo</title>
  <g>
    <path d="M2055.875,337a6.132,6.132,0,0,0-6.125,6.125c0,2.979,4.636,8.6,6.1,9.941,1.414-1.36,6.147-6.932,6.147-9.941A6.132,6.132,0,0,0,2055.875,337Zm-.038,9.974a3.725,3.725,0,1,1,3.725-3.725A3.729,3.729,0,0,1,2055.837,346.974Z" transform="translate(-2048.25 -335.5)" style="fill: none"/>
    <circle cx="7.587" cy="7.75" r="2.225" style="fill: none"/>
    <path d="M2055.875,335.5a7.634,7.634,0,0,0-7.625,7.625c0,3.8,6.364,11.625,7.625,11.625s7.625-7.827,7.625-11.625A7.634,7.634,0,0,0,2055.875,335.5Zm-.022,17.566c-1.467-1.341-6.1-6.962-6.1-9.941a6.125,6.125,0,1,1,12.25,0C2062,346.134,2057.267,351.706,2055.853,353.066Z" transform="translate(-2048.25 -335.5)" style="fill: #fff"/>
    <path d="M2055.837,339.525a3.725,3.725,0,1,0,3.725,3.725A3.729,3.729,0,0,0,2055.837,339.525Zm0,5.949a2.225,2.225,0,1,1,2.225-2.225A2.227,2.227,0,0,1,2055.837,345.474Z" transform="translate(-2048.25 -335.5)" style="fill: #fff"/>
  </g>
</svg>
