<svg id="Layer_3" data-name="Layer 3" xmlns="http://www.w3.org/2000/svg" width="22" height="16" viewBox="0 0 22 16"><defs><style>.cls-1{fill:#35424b;}</style></defs><title>mail</title><path class="cls-1" d="M20.132,16H1.858A1.858,1.858,0,0,1,0,14.142V1.857A1.858,1.858,0,0,1,1.857,0H20.143A1.858,1.858,0,0,1,22,1.857V14.094A1.889,1.889,0,0,1,20.132,16ZM1.863,1A.874.874,0,0,0,1,1.883V14.142A.86.86,0,0,0,1.858,15H20.143A.857.857,0,0,0,21,14.143V1.857A.857.857,0,0,0,20.143,1Z"/><path class="cls-1" d="M20.17,16H2.006A1.868,1.868,0,0,1,.251,14.743a.468.468,0,0,1,.149-.49L7.5,7.927a.5.5,0,0,1,.666.746l-6.786,6.05A.847.847,0,0,0,2.006,15H20.17a.855.855,0,0,0,.627-.278L13.935,8.6a.5.5,0,1,1,.666-.746l7.172,6.4a.467.467,0,0,1,.15.49A1.862,1.862,0,0,1,20.17,16Z"/><path class="cls-1" d="M11.088,11.105a.5.5,0,0,1-.333-.127L.4,1.747a.468.468,0,0,1-.149-.49A1.868,1.868,0,0,1,2.006,0H20.17a1.862,1.862,0,0,1,1.753,1.257.467.467,0,0,1-.15.49L11.421,10.978a.5.5,0,0,1-.333.127ZM1.377,1.277l9.711,8.659L20.8,1.278A.855.855,0,0,0,20.17,1H2.006a.847.847,0,0,0-.629.277Z"/></svg>