<svg id="Isolation_Mode" data-name="Isolation Mode" xmlns="http://www.w3.org/2000/svg" width="6.35mm" height="6.35mm" viewBox="0 0 18 18">
  <title>percent</title>
  <g>
    <circle cx="11.307" cy="12" r="1" style="fill: none"/>
    <circle cx="6.307" cy="6" r="1" style="fill: none"/>
    <path d="M1966.193,336.815a8,8,0,1,0,8,8A8.009,8.009,0,0,0,1966.193,336.815Zm-4.693,5a2,2,0,1,1,2,2A2,2,0,0,1,1961.5,341.815Zm1.957,6.71a.5.5,0,1,1-.713-.7l6.186-6.286a.5.5,0,1,1,.713.7Zm5.043,1.29a2,2,0,1,1,2-2A2,2,0,0,1,1968.5,349.815Z" transform="translate(-1957.193 -335.815)" style="fill: none"/>
    <path d="M1966.193,335.815a9,9,0,1,0,9,9A9.01,9.01,0,0,0,1966.193,335.815Zm0,17a8,8,0,1,1,8-8A8.009,8.009,0,0,1,1966.193,352.815Z" transform="translate(-1957.193 -335.815)" style="fill: #fff"/>
    <path d="M1965.5,341.815a2,2,0,1,0-2,2A2,2,0,0,0,1965.5,341.815Zm-3,0a1,1,0,1,1,1,1A1,1,0,0,1,1962.5,341.815Z" transform="translate(-1957.193 -335.815)" style="fill: #fff"/>
    <path d="M1968.5,345.815a2,2,0,1,0,2,2A2,2,0,0,0,1968.5,345.815Zm0,3a1,1,0,1,1,1-1A1,1,0,0,1,1968.5,348.815Z" transform="translate(-1957.193 -335.815)" style="fill: #fff"/>
    <path d="M1969.637,341.532a.5.5,0,0,0-.707.006l-6.186,6.286a.5.5,0,1,0,.713.7l6.186-6.286A.5.5,0,0,0,1969.637,341.532Z" transform="translate(-1957.193 -335.815)" style="fill: #fff"/>
  </g>
</svg>
