<svg id="Layer_3" data-name="Layer 3" xmlns="http://www.w3.org/2000/svg" width="22.225" height="22.23" viewBox="0 0 22.225 22.23"><defs><style>.cls-1{fill:#35424b;}</style></defs><title>phone</title><path class="cls-1" d="M17.826,22.23A17.748,17.748,0,0,1,5.549,16.752,17.671,17.671,0,0,1,0,4.08l0-.167.1-.131a12.131,12.131,0,0,1,.93-1.054A11.669,11.669,0,0,1,5.107.081,1.279,1.279,0,0,1,5.579,0c.531,0,1.4.283,1.59.794C7.711,2.3,8.4,4.265,8.892,6.137a1.951,1.951,0,0,1-.522,1.73L6.6,8.99a.453.453,0,0,0-.186.308A1.372,1.372,0,0,0,6.7,10.312,25.539,25.539,0,0,0,9.11,13.134a25.073,25.073,0,0,0,2.809,2.392c.483.355,1.147.389,1.317.11l1.127-1.778c.291-.451,1.133-.548,1.433-.548a1.27,1.27,0,0,1,.278.026,24.721,24.721,0,0,1,5.4,1.741,1.938,1.938,0,0,1,.677,2.05A11.693,11.693,0,0,1,19.5,21.19a11.827,11.827,0,0,1-1.057.93l-.131.1-.49.007ZM1,4.27A16.655,16.655,0,0,0,6.186,15.975l.074.074A16.743,16.743,0,0,0,17.826,21.23l.136,0a10.544,10.544,0,0,0,3.253-4.464A1.252,1.252,0,0,0,21,15.95a24.305,24.305,0,0,0-5.142-1.638,1.36,1.36,0,0,0-.7.138l-1.077,1.717a1.957,1.957,0,0,1-2.755.167A26.271,26.271,0,0,1,8.4,13.841,26.665,26.665,0,0,1,5.9,10.9a2.334,2.334,0,0,1-.463-1.8,1.427,1.427,0,0,1,.637-.962L7.835,7.022a2.049,2.049,0,0,0,.088-.636c-.484-1.828-1.16-3.767-1.694-5.25A2.487,2.487,0,0,0,5.579,1a.361.361,0,0,0-.111.013A10.6,10.6,0,0,0,1,4.27Z"/></svg>