<svg id="Layer_1" data-name="Layer 1" xmlns="http://www.w3.org/2000/svg" width="7.614mm" height="7.716mm" viewBox="0 0 21.583 21.873">
  <title>search</title>
  <g>
    <circle cx="9" cy="9" r="7" style="fill: none"/>
    <path d="M-188.709-221.834l-5.394-5.394A8.956,8.956,0,0,0-192-233a9.01,9.01,0,0,0-9-9,9.01,9.01,0,0,0-9,9,9.01,9.01,0,0,0,9,9,8.942,8.942,0,0,0,5.445-1.851l5.431,5.431a1,1,0,0,0,.707.293,1,1,0,0,0,.707-.293A1,1,0,0,0-188.709-221.834ZM-201-226a7.008,7.008,0,0,1-7-7,7.008,7.008,0,0,1,7-7,7.008,7.008,0,0,1,7,7A7.008,7.008,0,0,1-201-226Z" transform="translate(210 242)"/>
  </g>
</svg>
