<svg id="Ñëîé_2" data-name="Ñëîé 2" xmlns="http://www.w3.org/2000/svg" width="115.72" height="129.53" viewBox="0 0 115.72 129.53"><title>shield</title><path d="M57.86,129.53a3.7,3.7,0,0,1-1.8-.47L52,126.8C3.92,99.95-1.11,54,.17,29l.4-7.85C.66,19.38,2.3,18.39,3.81,18l.43,0,7.71,0A13.39,13.39,0,0,0,24.69,8.55l1.87-6A3.68,3.68,0,0,1,30.08,0h56a3.62,3.62,0,0,1,3.47,2.55l1.76,5.62a12.58,12.58,0,0,0,12,8.83h8.9l.56.47c.86.72,2.32,2.16,2.4,3.7l.4,7.85c1.28,25-3.75,70.93-51.83,97.78l-4.06,2.27A3.7,3.7,0,0,1,57.86,129.53Zm-.15-4h0ZM4.53,22l-.37,7.22C2.93,53.29,7.76,97.51,53.95,123.3l3.91,2.18,3.91-2.18c46.19-25.79,51-70,49.79-94.09l-.39-7.64a4.28,4.28,0,0,0-.48-.58h-7.4A16.57,16.57,0,0,1,87.51,9.36L85.82,4H30.31l-1.8,5.74A17.38,17.38,0,0,1,12,22L4.53,22Zm106.68-.34h0ZM58,113.39a3.7,3.7,0,0,1-1.93-.55l-.69-.42C21.4,91.6,14.14,59.32,14,35.9V34.85a3.72,3.72,0,0,1,2.9-3.62l.25-.05A28.79,28.79,0,0,0,36.76,16a3.69,3.69,0,0,1,3.3-2H76a3.69,3.69,0,0,1,3.3,2A28.79,28.79,0,0,0,98.9,31.17l.24.05A3.72,3.72,0,0,1,102,34.85V35.9c-.1,23.42-7.36,55.7-41.38,76.52l-.69.42A3.7,3.7,0,0,1,58,113.39Zm-.15-4h0ZM18,35.08v.81c.1,22.4,7,53.27,39.46,73.13l.53.33.53-.33C91,89.15,97.94,58.28,98,35.88v-.81h0A32.78,32.78,0,0,1,75.84,18H40.25A32.78,32.78,0,0,1,18,35.08Z"/></svg>