<svg id="Isolation_Mode" data-name="Isolation Mode" xmlns="http://www.w3.org/2000/svg" width="32.24mm" height="20.95mm" viewBox="0 0 91.38 59.39"><defs><style>.cls-1{fill:#231f20;}</style></defs><title>truck</title><path class="cls-1" d="M23.88,59.39a9.59,9.59,0,1,1,9.59-9.59A9.6,9.6,0,0,1,23.88,59.39Zm0-17.18a7.59,7.59,0,1,0,7.59,7.59A7.6,7.6,0,0,0,23.88,42.21Z"/><path class="cls-1" d="M74.81,59.39A9.59,9.59,0,1,1,84.4,49.8,9.6,9.6,0,0,1,74.81,59.39Zm0-17.18A7.59,7.59,0,1,0,82.4,49.8,7.6,7.6,0,0,0,74.81,42.21Z"/><path class="cls-1" d="M15.46,49.71H7.29a1,1,0,0,1,0-2h8.17a1,1,0,0,1,0,2Z"/><rect class="cls-1" x="32.47" y="47.71" width="33.75" height="2"/><path class="cls-1" d="M88.71,49.71H83.4v-2h5.3a.67.67,0,0,0,.67-.67V30a.63.63,0,0,0-.62-.62H85.07a3.21,3.21,0,0,1-2.78-1.61l-6.87-12a.73.73,0,0,0-.63-.37H60.54v-2H74.79a2.74,2.74,0,0,1,2.37,1.38l6.87,12a1.2,1.2,0,0,0,1,.6h3.68A2.63,2.63,0,0,1,91.38,30V47A2.67,2.67,0,0,1,88.71,49.71Z"/><path class="cls-1" d="M60.54,49.25a1,1,0,0,1-1-1V2H27.63a1,1,0,0,1,0-2H61.54V48.25A1,1,0,0,1,60.54,49.25Z"/><path class="cls-1" d="M44.08,14H17.5a1,1,0,0,1,0-2H44.08a1,1,0,0,1,0,2Z"/><path class="cls-1" d="M33.38,25.63H1a1,1,0,0,1,0-2H33.38a1,1,0,0,1,0,2Z"/><path class="cls-1" d="M72.89,30.75H64.5a1,1,0,0,1,0-2h8.39a1,1,0,0,0,.91-1.46l-2.08-4.23a1,1,0,1,1,1.79-.88l2.08,4.23a3,3,0,0,1-2.7,4.34Z"/></svg>